<svg width="1440" height="225" viewBox="0 0 1440 225" fill="none" xmlns="http://www.w3.org/2000/svg">
<g clip-path="url(#clip0_201_47)">
<path d="M-1.85893 102.201C28.4349 93.1463 57.554 80.531 84.8917 64.6181C98.7321 56.5555 112.071 47.6569 124.834 37.9715C126.975 36.3246 129.707 33.1418 132.088 32.3091C136.536 30.7547 137.791 37.1943 139.471 40.7287L151.856 68.208C159.239 84.2701 166.271 100.48 173.839 116.431C179.524 128.385 186.501 138.914 199.107 144.188C225.76 155.402 260.719 151.59 287.501 142.948C344.184 124.61 380.342 67.3754 439.425 55.2178C491.106 44.5592 549.119 70.4286 574.812 116.949C580.644 127.534 583.56 140.321 595.336 145.872C606.54 151.127 620.863 151.59 632.971 150.739C660.087 148.876 685.554 137.01 704.458 117.43C722.232 98.7962 738.106 69.1518 766.494 66.5056C792.242 64.1 810.478 86.139 825.798 103.515C842.243 122.205 859.021 139.525 883.995 145.483C909.669 151.608 937.337 146.705 961 135.639C989.517 122.297 1013.25 100.887 1035.96 79.4774C1048.17 67.9305 1061.48 50.8507 1080.09 52.5716C1097.64 54.2 1113.4 67.8935 1126.49 78.5707C1148.64 96.7052 1170.18 114.858 1199.6 118.781C1230.17 122.852 1261.14 113.896 1288.81 101.479C1345.05 76.2206 1403.85 31.1618 1468.88 52.2385C1482.42 56.5231 1494.6 64.28 1504.23 74.7402C1504.63 75.1843 1505.28 74.5366 1504.89 74.0925C1469.82 35.8064 1412.03 42.7642 1368.86 60.9727C1313.48 84.3441 1258.5 128.774 1194.67 117.06C1164.29 111.509 1142.99 90.0065 1119.46 71.7794C1101.24 57.5864 1078.46 42.8197 1056.94 58.9557C1045.41 67.5974 1035.48 78.7187 1024.86 88.4521C1013.61 99.0171 1001.69 108.845 989.184 117.874C965.19 134.788 937.632 146.871 907.971 147.093C879.786 147.297 856.917 135.62 837.832 115.395C823.62 100.332 811.087 81.8089 792.722 71.4278C746.061 45.0402 719.907 107.271 689.359 129.403C677.668 137.863 664.413 143.903 650.367 147.169C636.322 150.435 621.767 150.863 607.555 148.426C600.357 147.093 593.048 144.891 587.972 139.284C582.896 133.677 580.736 126.424 577.488 120.021C572.616 110.453 566.435 101.615 559.123 93.7629C529.775 62.083 483.686 45.9285 441.123 53.9225C387.818 63.915 353.671 111.583 306.549 134.325C277.53 148.379 244.832 152.912 213.098 147.278C196.209 144.096 184.637 135.694 176.755 120.336C169.372 105.883 163.115 90.7282 156.452 75.9245L135.17 29.3483C135.041 29.0523 134.653 29.0893 134.45 29.3483C94.0256 62.0431 47.6319 86.5248 -2.13579 101.424C-2.68952 101.609 -2.44957 102.497 -1.87739 102.331L-1.85893 102.201Z" fill="url(#paint0_radial_201_47)"/>
<path d="M-1.93274 99.888C27.0254 91.8357 55.0477 80.7198 81.6617 66.7277C96.0691 59.1156 109.95 50.5409 123.21 41.0618C125.388 39.5074 129.301 35.5104 131.829 36.1951C134.358 36.8797 136.222 43.5969 137.367 45.91C140.929 53.83 144.491 61.7499 148.127 69.6329C154.957 84.4366 161.952 99.1108 169.631 113.452C175.297 123.981 182.311 134.14 192.85 140.265C204.46 147.001 218.543 148.296 231.611 148.518C246.485 148.706 261.318 146.921 275.725 143.207C305.478 135.676 330.691 119.669 355.332 101.849C378.995 84.8622 403.211 66.3576 432.079 59.4369C479.829 47.964 533.466 67.7455 564.106 105.809C572.153 115.82 576.546 127.293 583.413 137.952C589.577 147.537 599.581 150.683 610.379 152.293C634.619 155.729 659.316 151.183 680.758 139.34C692.575 132.504 703.178 123.75 712.136 113.433C722.048 102.553 731.258 90.5617 743.274 81.8645C755.788 72.8157 771.219 69.1703 786.132 74.2221C801.046 79.2738 812.305 90.8763 822.844 101.831C832.682 112.009 842.225 122.778 853.853 130.957C864.875 138.583 877.583 143.403 890.879 145.002C917.919 148.5 946.529 140.857 970.597 128.663C996.438 115.524 1018.59 96.3721 1040.35 77.2938C1053.84 65.4324 1066.89 51.7204 1086.49 56.217C1101.5 59.6774 1114.79 69.7439 1126.93 78.7742C1150.26 96.1685 1172.63 113.063 1202.33 116.857C1232.71 120.743 1263.56 112.841 1291.43 101.146C1347.02 77.7749 1402.38 32.5681 1466.41 50.0365C1480.54 53.754 1493.42 61.2274 1503.67 71.6684C1504.08 72.094 1504.74 71.4279 1504.32 71.0023C1468.53 34.2706 1411.77 42.9308 1369.41 61.75C1314.65 86.0465 1261.77 125.517 1198.38 115.413C1169.29 110.769 1147.38 92.5787 1124.31 75.6099C1105.97 62.1756 1081.86 45.6509 1059.53 60.1771C1049.17 66.9313 1040.27 76.2021 1030.97 84.2331C1020 93.952 1008.55 103.111 996.66 111.675C972.831 128.441 945.717 140.857 916.554 144.096C902.338 145.952 887.889 144.683 874.212 140.376C859.704 135.454 848.021 126.146 837.297 115.45C820.685 99.0183 804.184 76.1096 779.746 71.7055C757.689 67.7455 739.988 81.6424 725.905 96.8717C716.289 107.271 707.448 118.596 696.558 127.626C686.064 136.196 674.081 142.746 661.211 146.945C649.009 150.988 636.203 152.898 623.355 152.589C608.681 152.201 592.088 150.128 583.653 136.638C577.838 127.386 573.981 117.375 567.355 108.53C561.407 100.64 554.556 93.4792 546.94 87.1938C516.135 61.5464 473.202 49.3333 433.814 58.086C379.401 70.1881 342.892 119.336 290.971 137.656C264.429 147.019 230.78 152.682 203.316 143.855C188.236 139.007 178.435 127.83 171.033 114.248C163.946 101.294 157.541 87.8414 151.284 74.4256C145.027 61.0097 138.88 47.2053 132.826 33.5674C132.761 33.4659 132.661 33.3925 132.545 33.3616C132.428 33.3308 132.305 33.3448 132.199 33.4009C91.8647 63.4507 46.2955 85.6972 -2.17269 98.9998C-2.27911 99.041 -2.36653 99.1203 -2.41807 99.2223C-2.46962 99.3243 -2.48165 99.4419 -2.45182 99.5523C-2.422 99.6627 -2.35245 99.758 -2.25659 99.82C-2.16073 99.882 -2.04536 99.9062 -1.93274 99.888V99.888Z" fill="url(#paint1_radial_201_47)"/>
<path d="M-1.98813 97.5934C27.3191 90.0134 55.8081 79.5506 83.0644 66.3576C96.2142 59.939 108.934 52.6698 121.142 44.5961C123.32 43.1713 127.03 39.5629 129.467 40.3216C131.903 41.0803 133.657 47.4459 134.69 49.7404C137.902 56.9819 141.163 64.1864 144.473 71.3539C155.547 95.0953 166.788 124.74 190.617 138.507C214.446 152.275 246.986 147.537 272.236 141.209C301.768 133.807 327.609 119.41 352.674 102.627C376.669 86.5832 401.089 69.1148 429.753 62.5826C477.374 51.7204 530.476 71.3353 562.094 108.086C570.529 117.893 575.494 129.014 582.49 139.71C589.208 150.017 599.84 153.274 611.524 154.921C635.498 158.159 659.883 153.812 681.275 142.486C707.115 128.792 721.623 102.886 745.378 86.8422C758.114 78.2376 773.6 75.0363 788.403 79.9585C802.818 84.7512 814.354 95.5394 825.17 105.865C835.266 115.413 845.197 125.572 857.231 132.697C868.297 139.065 880.674 142.8 893.408 143.614C920.836 145.687 950.479 136.916 974.88 124.869C1000.33 112.323 1022.43 94.2441 1044.3 76.4241C1058.47 64.8772 1071.27 54.4776 1090.65 59.77C1105.54 63.915 1118.79 73.1118 1131.42 81.7164C1155.6 98.1855 1179.41 112.656 1209.09 115.506C1238.77 118.356 1268.28 111.453 1295.6 100.702C1350.97 78.7742 1403.54 32.9012 1467.09 48.8892C1480.76 52.2143 1493.31 59.0949 1503.49 68.8372C1503.91 69.2443 1504.56 68.5966 1504.13 68.1895C1468.75 34.0485 1414.52 42.7087 1373.8 61.1208C1346.47 73.4819 1321.24 89.8214 1293.18 100.684C1266.56 111.009 1237.81 117.43 1209.09 114.673C1178.04 111.675 1153.83 95.7615 1128.63 78.7927C1110.67 66.7092 1086.18 49.7774 1064.03 60.9542C1053.6 66.2095 1044.69 75.0548 1035.66 82.3456C1024.59 91.3574 1013.31 100.221 1001.46 108.252C977.981 124.316 951.464 135.375 923.549 140.746C893.02 146.575 864.891 140.265 841.357 119.651C823.86 104.311 807.229 82.6417 783.216 77.6824C760.587 73.0378 741.982 86.4536 726.957 101.738C717.581 111.287 708.943 121.668 698.533 130.125C687.79 138.77 675.543 145.345 662.411 149.517C649.897 153.551 636.791 155.428 623.65 155.069C609.013 154.643 591.995 152.589 583.339 139.303C577.525 130.384 573.353 120.798 566.727 112.305C560.323 104.142 552.988 96.7576 544.873 90.3026C513.864 65.5989 471.744 53.2933 432.522 61.1023C407.493 66.1171 385.418 79.7179 364.45 93.6889C340.806 109.455 317.439 125.461 290.398 134.88C263.358 144.299 228.344 151.886 200.399 142.042C172.141 132.105 159.645 101.054 147.758 75.9615C141.575 63.3043 135.908 50.5362 130.371 37.805C130.31 37.7 130.209 37.6235 130.092 37.5923C129.974 37.5612 129.849 37.5777 129.744 37.6384C89.8199 65.3954 44.8388 84.3811 -2.13579 96.7052C-2.2422 96.7464 -2.32962 96.8257 -2.38117 96.9277C-2.43272 97.0297 -2.44474 97.1472 -2.41492 97.2576C-2.3851 97.368 -2.31554 97.4635 -2.21968 97.5255C-2.12382 97.5875 -2.00845 97.6117 -1.89584 97.5934H-1.98813Z" fill="url(#paint2_radial_201_47)"/>
<path d="M-2.04251 95.2804C26.7708 88.3839 54.9322 78.9914 82.1241 67.2088C95.4889 61.3108 108.439 54.5102 120.885 46.8537C124.244 44.8182 125.869 42.5977 128.674 46.2986C130.649 48.9078 131.849 53.4599 133.178 56.4576C136.371 63.6374 139.619 70.8172 143.016 77.9045C149.307 91.4274 156.587 104.466 164.796 116.912C171.377 126.565 180.564 134.138 191.282 138.748C216.089 150.221 245.954 145.206 271.425 138.452C299.554 131.05 324.952 118.319 349.667 103.182C374.382 88.045 399.798 71.0023 429.034 65.2473C476.526 55.884 528.539 75.7579 560.656 111.379C569.312 121.002 574.683 132.031 581.974 142.504C588.951 152.515 599.546 155.679 611.137 157.308C635.018 160.64 659.346 156.673 680.944 145.928C706.175 133.344 721.421 109.529 744.161 93.7999C757.081 84.8622 772.641 80.8467 788.071 84.9733C803.188 89.0998 815.555 99.6475 827.202 109.64C837.261 118.263 847.265 127.312 859.152 133.363C870.49 138.895 882.922 141.81 895.532 141.894C909.596 142.19 923.218 139.284 936.803 135.62C950.268 132.293 963.436 127.855 976.173 122.353C1001.88 110.565 1024.48 93.2448 1047.01 76.3686C1060.41 66.3206 1072.72 58.1045 1090.3 62.2311C1105.41 65.8025 1119.18 74.2776 1132.31 82.2716C1156.82 97.1678 1180.94 110.399 1209.94 113.563C1239.47 116.783 1269.35 111.213 1297.15 101.128C1352.89 80.8653 1402.62 33.3639 1466.2 47.2424C1479.82 50.0849 1492.46 56.4663 1502.84 65.747C1503.27 66.1541 1503.93 65.5064 1503.49 65.0993C1466.9 32.013 1413.05 43.0418 1372.73 62.4901C1346.49 75.1843 1322.34 91.1538 1294.71 100.961C1266.81 110.861 1236.83 116.024 1207.28 112.249C1177.73 108.474 1153.4 93.7445 1128.26 78.6817C1110.23 67.912 1086.22 53.3673 1064.9 63.3228C1053.38 68.6892 1043.4 77.9415 1033.24 85.5284C1023.09 93.1153 1012.53 100.647 1001.66 107.438C977.815 122.242 952.067 131.586 924.731 137.73C894.756 144.466 866.498 140.284 842.134 121.076C823.953 106.716 806.492 86.3241 782.313 82.9008C759.407 79.6254 741.042 93.4299 725.556 108.567C715.57 118.337 706.12 128.774 694.602 136.823C684.263 143.994 672.831 149.431 660.751 152.922C637.144 159.787 596.703 163.877 581.383 139.969C575.643 131.087 570.863 121.983 563.996 113.859C557.667 106.414 550.577 99.6541 542.844 93.6889C511.466 69.3183 469.18 56.6797 429.754 64.0815C404.523 68.8372 382.06 82.0496 360.465 95.3544C336.894 109.881 313.379 124 286.948 132.789C260.517 141.579 227.219 149.943 199.736 141.042C185.514 136.775 173.202 127.707 164.888 115.376C157.503 104.038 150.904 92.2043 145.138 79.9585C139.066 67.4679 133.528 54.7552 127.917 42.061C127.856 41.956 127.755 41.8796 127.638 41.8484C127.52 41.8172 127.395 41.8338 127.29 41.8945C87.6614 67.0793 43.2524 83.3263 -2.20863 94.3921C-2.32611 94.4265 -2.42518 94.5062 -2.48402 94.6138C-2.54287 94.7214 -2.55667 94.848 -2.52241 94.9657C-2.48814 95.0835 -2.4086 95.1828 -2.3013 95.2418C-2.19399 95.3008 -2.06771 95.3147 -1.95022 95.2804H-2.04251Z" fill="url(#paint3_radial_201_47)"/>
<path d="M-2.1165 92.9858C27.4304 86.4729 56.4331 77.688 84.6342 66.7092C90.1714 64.5442 95.5795 62.2496 100.932 59.733C104.181 58.1971 107.411 56.5871 110.622 54.9402C113.834 53.2933 119.39 48.5746 122.768 48.3526C127.419 48.0565 131.147 61.5834 132.753 65.1918C135.872 72.094 139.066 78.9592 142.48 85.7134C148.492 98.1502 155.7 109.969 164.002 121.002C170.48 129.292 178.491 133.955 188.218 137.656C200.881 142.691 214.521 144.773 228.105 143.744C242.529 142.484 256.796 139.819 270.705 135.787C299.148 127.867 325.266 115.654 350.94 101.22C375.747 87.2863 400.923 72.2791 429.477 67.8195C477.006 60.4176 528.244 80.9022 560.526 116.08C569.09 125.424 574.498 136.435 582.251 146.298C589.634 155.698 600.801 158.492 612.189 160.047C636.238 163.26 660.698 159.295 682.512 148.648C707.356 136.453 723.119 113.489 746.099 98.8332C759.019 90.5801 774.025 86.7867 789.123 90.3766C803.631 93.8185 815.961 102.96 827.626 111.86C838.35 120.058 849 128.774 861.551 134.066C874.014 139.021 887.443 141.053 900.81 140.006C915.059 139.099 928.497 135.047 942.284 131.327C955.334 127.793 968.125 124.314 980.547 118.818C1006.26 107.438 1029.03 90.8763 1052.2 75.1658C1058.03 71.2243 1063.98 67.2643 1070.79 65.2103C1079.44 62.6012 1088.49 64.026 1096.98 66.5427C1111.49 70.8172 1124.9 78.2746 1138.17 85.3989C1163.04 98.7407 1188.14 109.64 1216.53 112.249C1244.91 114.858 1273.45 110.399 1300.36 101.257C1328.44 91.7459 1352.45 74.5922 1378.94 61.7129C1405.72 48.7597 1435.73 40.2846 1465.69 45.7064C1479.29 48.0724 1492.03 54.0104 1502.6 62.9158C1503.06 63.2859 1503.71 62.6382 1503.27 62.2496C1466.35 31.0323 1413.93 43.0788 1374.78 62.8047C1348.94 75.7579 1325.45 92.1346 1297.8 101.183C1270.83 110.01 1242.22 114.137 1213.92 111.046C1184.84 107.919 1159.55 95.7059 1134.08 82.068C1115.03 71.872 1089.58 56.7722 1067.45 65.4139C1056.8 69.5959 1047.47 77.3679 1038.1 83.789C1027.45 91.0798 1016.72 98.2781 1005.58 104.829C981.341 119.059 955.98 126.868 929.013 134.029C899.887 141.764 871.167 141.431 845.567 123.944C825.854 110.769 807.765 91.1723 783.198 88.3226C760.44 85.6764 742.038 98.8887 726.146 113.526C715.902 122.963 706.119 133.011 694.399 140.672C683.621 147.689 671.777 152.902 659.33 156.105C634.947 162.508 595.817 165.542 579.962 141.708C568.537 124.462 557.13 109.344 540.37 96.8162C508.55 73.0378 466.54 60.2881 427.004 67.2088C402.363 71.5019 380.066 83.5669 358.526 95.7244C333.202 110.01 307.879 123.296 280.008 131.957C253.189 140.321 222.199 148.278 194.697 139.025C180.761 134.344 170.37 128.644 161.602 116.505C154.129 105.864 147.542 94.6251 141.908 82.9008C135.946 70.8912 130.612 58.6042 125.296 46.3356C125.268 46.2817 125.228 46.2343 125.18 46.1964C125.133 46.1585 125.078 46.1308 125.019 46.1152C124.96 46.0996 124.898 46.0963 124.838 46.1055C124.778 46.1148 124.72 46.1364 124.669 46.1691C85.354 68.5597 41.6095 82.2531 -2.43028 92.1161C-3.00246 92.2456 -2.76252 93.1338 -2.19033 93.0043L-2.1165 92.9858Z" fill="url(#paint4_radial_201_47)"/>
<path d="M-2.17188 90.6912C26.5113 84.848 54.8204 77.2908 82.6038 68.0601C89.0271 65.9135 95.3949 63.6189 101.652 61.0097C107.06 58.7337 113.465 54.1075 119.15 52.9973C123.247 52.1831 123.801 54.8477 125.315 58.3636C126.828 61.8795 128.176 64.8957 129.652 68.134C132.753 75.0178 135.965 81.846 139.435 88.4891C149.734 108.474 163.227 134.362 187.517 138.581C192.648 139.469 197.484 141.338 202.597 142.282C209.322 143.274 216.147 143.38 222.9 142.597C237.002 141.211 250.943 138.504 264.54 134.51C292.526 126.592 319.666 115.931 345.569 102.682C371.281 89.729 397.01 75.1658 425.878 70.8172C473.868 63.6004 525.549 84.3811 558.957 119.04C567.522 127.941 573.446 138.341 581.106 147.944C588.766 157.548 600.025 160.713 611.912 162.378C635.512 165.625 659.548 162.203 681.313 152.497C706.821 141.061 723.636 118.707 747.04 104.385C760.422 96.15 775.779 92.5416 791.338 95.9095C805.108 98.9072 817.179 106.864 828.77 114.618C839.55 121.871 850.273 129.606 862.603 133.992C875.071 138.176 888.305 139.553 901.364 138.026C915.023 136.657 927.888 132.327 941.066 128.774C955.094 125.073 969.03 121.945 982.522 116.413C1008.01 105.976 1030.92 90.6727 1054.29 76.3131C1059.73 72.6018 1065.7 69.7381 1072 67.8195C1081.23 65.4879 1090.46 67.0423 1099.38 69.5219C1113.18 73.3708 1126.25 79.4959 1139.23 85.4914C1164.02 96.9457 1188.93 107.012 1216.25 110.177C1244.8 113.366 1273.7 110.651 1301.16 102.201C1329.14 93.7259 1352.41 76.5166 1378.11 63.1563C1403.8 49.7959 1432.37 40.3031 1461.64 43.6339C1476.44 45.1276 1490.51 50.7714 1502.25 59.918C1502.71 60.2881 1503.38 59.6405 1502.92 59.2704C1464.8 29.1263 1412.69 43.5969 1373.97 64.3591C1348.91 77.775 1326.15 93.9665 1298.53 102.035C1271.91 109.893 1244 112.347 1216.42 109.251C1187.92 105.939 1162.23 94.9843 1136.37 83.0673C1116.93 74.1295 1091.62 60.4546 1069.75 67.5789C1059.34 70.9653 1050.1 77.923 1040.9 83.6779C1029.83 90.5986 1018.75 97.4639 1007.26 103.644C995.32 110.222 982.839 115.751 969.952 120.169C957.032 124.481 943.595 127.108 930.509 130.883C902.287 138.988 874.102 141.19 847.837 125.85C828.217 114.396 810.257 97.3158 786.927 94.1515C763.597 90.9872 744.161 103.811 727.235 118.485C717.047 127.312 707.227 136.694 695.765 143.91C684.928 150.695 673.093 155.728 660.696 158.825C648.475 161.902 635.867 163.149 623.282 162.526C609.088 161.823 592.421 159.824 582.675 148.241C575.495 139.71 570.309 129.828 562.76 121.52C556.176 114.288 548.92 107.702 541.09 101.849C508.808 77.5714 466.245 63.841 425.86 69.929C400.96 73.6299 378.202 85.0658 356.016 96.4276C330.785 109.381 305.424 121.039 278.328 129.514C264.981 133.877 251.352 137.321 237.537 139.821C230.469 141.108 223.321 141.911 216.144 142.227C212.565 142.36 208.98 142.224 205.421 141.819C200.899 141.264 197.465 139.543 193.165 138.47C187.203 137.008 181.813 136.953 176.147 134.103C170.065 130.768 164.781 126.146 160.661 120.558C152.52 110.09 145.463 98.8178 139.601 86.9162C133.528 75.0362 128.213 62.8602 122.989 50.5546C122.921 50.4517 122.817 50.3778 122.698 50.3471C122.579 50.3163 122.452 50.3309 122.343 50.3881C83.3237 69.9105 40.096 81.1613 -2.41183 89.803C-3.00248 89.914 -2.76253 90.8022 -2.17188 90.6912V90.6912Z" fill="url(#paint5_radial_201_47)"/>
<path d="M-2.24575 88.3781C26.0497 83.1598 54.0499 76.4981 81.7916 68.9482C87.9565 67.2828 94.0475 65.5064 100.083 63.3968C102.889 62.4223 105.676 61.3922 108.444 60.3066C110.604 59.4739 115.827 56.1431 117.968 56.4391C122.749 57.1423 125.13 67.838 126.939 71.8165C129.947 78.4596 133.104 85.0472 136.5 91.4869C146.412 110.251 160.126 135.195 183.05 139.007C188.956 139.988 194.789 140.45 200.695 141.542C206.808 142.486 213.023 142.548 219.153 141.727C232.468 140.135 245.617 137.374 258.449 133.474C286.464 125.504 313.871 115.523 340.456 103.607C367.146 91.6164 393.706 77.701 423.054 73.778C470.896 67.3199 521.71 87.712 555.949 120.854C564.734 129.347 571.434 139.062 578.836 148.611C586.237 158.159 595.245 161.879 606.522 163.988C630.921 168.398 656.066 165.832 679.079 156.586C704.071 146.538 721.421 126.868 743.551 112.416C756.195 104.163 770.573 98.9813 785.856 100.24C801.139 101.498 814.558 108.641 827.404 116.061C838.608 122.538 849.664 129.625 862.123 133.474C874.713 137.09 887.932 137.955 900.884 136.009C914.653 134.159 927.463 129.292 940.808 125.72C954.78 122.019 968.863 119.614 982.522 114.618C1007.68 105.365 1030.66 91.5794 1053.97 78.5891C1060.28 75.0733 1066.8 71.4834 1073.96 70.0955C1082.8 68.3931 1091.61 69.929 1100.24 72.0755C1113.42 75.6484 1126.36 80.0236 1139.01 85.1768C1164.85 95.1508 1190.58 104.792 1218.23 108.326C1246.85 112.103 1275.94 110.083 1303.78 102.386C1331.46 94.5587 1354.15 76.7942 1379.16 63.2118C1404.72 49.3333 1433.33 39.1558 1462.81 42.2646C1476.72 43.5962 1490.02 48.6516 1501.31 56.9018C1501.79 57.2533 1502.25 56.4576 1501.77 56.106C1462.05 26.7947 1409.74 44.5221 1371.28 66.5611C1347 80.4581 1325.13 96.1686 1297.45 103.089C1268.86 110.052 1239.17 111.116 1210.16 106.217C1184.32 101.998 1159.95 92.2271 1135.55 82.8822C1115.43 75.1843 1089.87 63.3043 1068.15 70.6877C1057.07 74.3886 1046.87 81.4944 1036.68 87.2308C1025.82 93.3373 1014.9 99.3329 1003.64 104.644C991.119 110.752 978.071 115.701 964.655 119.429C951.864 122.797 939.017 125.332 926.337 129.218C897.949 137.934 870.577 139.062 843.905 124.592C823.159 113.322 802.708 97.982 777.901 99.3143C755.549 100.499 737.996 114.71 721.458 128.385C700.859 145.409 679.467 158.548 652.759 163.248C638.812 165.732 624.555 165.926 610.546 163.822C604.049 162.804 597.164 161.564 591.295 158.455C584.263 154.754 579.833 148.685 575.366 142.319C564.007 126.295 549.812 112.497 533.486 101.609C500.428 79.3108 458.456 66.7832 418.643 73.5004C393.965 77.6639 371.28 88.4892 348.725 98.8147C322.84 110.69 296.21 120.864 269.007 129.273C255.998 133.504 242.722 136.861 229.268 139.321C222.415 140.602 215.455 141.222 208.485 141.172C202.283 141.005 196.672 138.489 190.636 138.489C162.95 138.489 147.39 110.417 136.112 88.5262C130.39 77.4234 125.388 66.0245 120.479 54.5702C120.414 54.4686 120.314 54.3952 120.197 54.3644C120.081 54.3335 119.958 54.3475 119.851 54.4036C81.2564 71.1688 38.6378 79.8845 -2.52262 87.4899C-3.0948 87.6009 -2.85485 88.4891 -2.28267 88.3781H-2.24575Z" fill="url(#paint6_radial_201_47)"/>
<path d="M-2.30117 86.0835C25.9389 81.4204 53.9391 75.4618 81.9577 69.6329C88.3625 68.3191 94.7304 66.8757 101.024 65.0993C104.384 64.137 107.724 63.1069 111.047 62.009C115.403 60.6026 116.898 60.1586 119.242 64.2296C122.62 70.0585 124.835 76.9052 127.751 83.0117C130.667 89.1183 133.842 95.1508 137.275 101.017C147.833 119.059 162.137 140.173 185.265 140.524C190.672 140.481 196.077 140.753 201.452 141.338C206.622 141.866 211.838 141.735 216.975 140.95C230.91 139.099 244.551 135.139 257.932 130.957C285.969 122.186 313.767 112.86 340.991 101.886C367.681 91.1538 394.518 78.9407 423.46 76.2576C471.708 71.798 522.19 93.0413 556.761 126.22C565.177 134.307 571.527 143.688 579.205 152.478C587.345 161.915 598.124 165.265 610.122 167.171C634.154 170.883 658.739 168.137 681.368 159.214C706.119 149.443 724.06 130.18 746.597 116.82C759.24 109.325 773.416 104.755 788.237 105.976C803.059 107.197 816.606 113.378 829.748 119.743C840.97 125.295 852.156 131.179 864.449 133.955C876.241 136.381 888.385 136.544 900.238 134.436C914.339 132.179 927.352 126.627 941.066 122.963C955.186 119.262 969.601 117.412 983.518 112.897C1008.97 104.588 1032.45 91.7274 1056.35 79.8845C1063.4 76.3871 1070.64 73.1673 1078.5 72.4826C1086.81 71.6869 1095.11 73.5004 1103.23 75.3323C1116.93 78.4226 1130.39 82.5306 1143.84 86.6942C1169.68 94.7252 1195.23 103.348 1222.16 107.049C1250.03 110.88 1278.56 110.38 1305.9 103.348C1333.23 96.3166 1354.61 78.7372 1378.44 64.9697C1403.91 50.2586 1432.37 38.8412 1462.29 40.9137C1476.16 41.7544 1489.55 46.3247 1501.05 54.1445C1501.55 54.4776 1502.01 53.6634 1501.51 53.3303C1460.5 25.2033 1408.74 45.4474 1370.65 68.4486C1359.24 75.3694 1348.2 82.9377 1336.7 89.6919C1325.11 96.3672 1312.54 101.158 1299.46 103.885C1271.4 110.066 1242.39 109.584 1214.16 104.866C1188.51 100.591 1164.02 91.9125 1139.23 84.3071C1126.95 80.6062 1114.62 76.9052 1102.09 74.111C1091.27 71.7239 1080.37 70.0585 1069.55 73.3709C1058.27 76.8127 1047.79 83.2708 1037.3 88.5631C1025.29 94.6327 1013.16 100.573 1000.68 105.643C976.154 115.635 950.239 118.744 925.266 127.016C897.58 136.268 870.853 138.119 843.85 125.683C823.104 116.135 802.671 103.478 778.916 105.069C755.789 106.624 737.571 121.316 719.852 134.899C699.548 150.517 678.027 162.1 652.482 166.209C640.119 168.199 627.542 168.473 615.105 167.023C608.437 166.34 601.863 164.925 595.503 162.804C586.662 159.658 580.94 153.551 575.403 146.15C563.342 130.141 548.641 116.316 531.935 105.273C498.527 83.1783 456.721 70.2806 416.594 76.054C390.458 79.7549 366.223 90.5802 341.914 100.388C316.387 110.695 290.418 119.429 264.226 127.848C251.924 132.018 239.396 135.484 226.702 138.23C220.04 139.76 213.233 140.566 206.399 140.635C200.197 140.543 195.453 138.896 189.381 139.377C161.694 141.579 145.083 114.155 133.713 92.7267C127.862 81.7719 122.841 70.5211 117.987 59.0113C117.937 58.9223 117.86 58.8523 117.766 58.8122C117.673 58.772 117.569 58.764 117.47 58.7892C99.1786 65.1918 80.4073 68.9668 61.4882 72.9082C40.2251 77.4604 18.9066 81.6424 -2.52266 85.1953C-3.1133 85.2878 -2.85489 86.176 -2.28271 86.0835H-2.30117Z" fill="url(#paint7_radial_201_47)"/>
<path d="M-2.3566 83.789C25.1637 79.792 52.5178 74.5367 80.0565 70.8357C86.0922 69.9845 92.1462 69.1888 98.145 68.023C100.914 67.5049 103.682 66.9127 106.432 66.2836C110.419 65.3583 113.612 63.5634 116.27 67.3753C119.703 72.279 121.549 79.4589 124.189 84.8622C127.142 90.9687 130.28 96.9827 133.75 102.793C144.012 120.058 158.612 141.283 180.687 141.949C185.763 142.097 190.581 140.617 195.564 140.561C201.821 140.561 207.691 141.375 214.022 140.45C226.942 138.6 239.678 134.344 252.081 130.18C279.768 120.928 307.602 112.194 335.14 102.423C362.015 92.9857 388.907 82.068 417.498 79.2368C466.005 74.5181 516.505 95.2248 552.608 127.016C561.139 134.871 569.056 143.371 576.289 152.441C584.059 161.693 593.048 166.283 604.806 168.688C629.298 173.536 654.634 171.813 678.248 163.692C703.148 155.18 721.938 137.785 744.087 124.333C757.007 116.487 771.256 111.176 786.539 111.379C800.696 111.527 814.225 116.135 827.293 121.279C840.361 126.424 852.783 132.16 866.534 134.122C878.383 135.581 890.395 134.955 902.028 132.271C915.447 129.403 927.869 123.537 941.048 120.04C955.334 116.339 970.1 115.136 984.368 111.046C1010.21 103.644 1034.07 91.7274 1058.6 81.1613C1065.25 77.984 1072.38 75.945 1079.7 75.1288C1088.03 74.5366 1096.31 76.2761 1104.47 77.8489C1118.55 80.5691 1132.58 83.6224 1146.54 86.9162C1173.85 93.3558 1200.49 101.886 1228.36 105.865C1254.2 109.566 1280.87 110.066 1306.54 104.311C1333.44 98.2596 1354.53 80.5506 1377.51 66.4131C1402.54 51.0728 1430.36 38.5266 1460.3 39.2298C1474.56 39.3862 1488.5 43.4842 1500.59 51.0728C1501.09 51.3873 1501.55 50.5916 1501.05 50.2771C1459.24 23.7044 1408.49 45.6509 1371.05 69.3553C1348.46 83.6594 1328.18 99.3143 1301.32 104.514C1273.63 109.806 1245.43 108.215 1217.89 103.348C1192.05 98.8702 1167.17 90.7652 1141.68 84.8437C1129.41 82.031 1117.08 79.2923 1104.77 76.9608C1093.86 74.8512 1082.78 72.8342 1071.71 75.4989C1060.63 78.1635 1050.28 83.863 1040 88.4521C1027.5 94.0035 1014.95 99.5549 1002.07 104.255C990.102 108.684 977.809 112.167 965.301 114.673C952.048 117.227 939.46 119.151 926.54 123.759C900.072 133.252 874.102 137.748 846.969 127.996C824.654 119.965 802.856 108.178 778.381 110.769C755.014 113.211 736.538 127.941 718.025 141.098C696.577 156.346 673.45 166.671 647.129 169.576C633.906 171.04 620.541 170.591 607.445 168.244C593.344 165.709 583.45 160.121 574.535 148.981C561.513 132.804 545.924 118.888 528.391 107.789C493.71 85.88 451.497 73.2968 410.429 79.1258C385.197 82.7157 361.332 92.079 337.411 100.591C311.57 109.695 285.489 117.708 259.593 126.498C247.965 130.458 236.3 134.436 224.321 137.267C217.347 139.188 210.142 140.135 202.91 140.08C200.492 139.969 197.631 138.785 195.287 138.951C193.257 139.081 191.116 139.969 189.085 140.284C160.532 144.799 142.757 117.541 130.76 95.5949C125.056 85.1213 120.165 74.2035 115.532 63.2303C115.488 63.1365 115.411 63.0621 115.316 63.0212C115.22 62.9803 115.114 62.9757 115.015 63.0083C97.2959 67.7269 79.1336 69.7254 61.0637 72.6122C39.8374 76.017 18.6112 79.6994 -2.65193 82.7897C-3.22411 82.8822 -2.98416 83.7704 -2.39352 83.6964L-2.3566 83.789Z" fill="url(#paint8_radial_201_47)"/>
<path d="M-2.52279 81.4944C24.6468 78.0895 51.7979 73.4819 79.152 71.6499C85.3538 71.2428 91.574 70.9838 97.7758 70.3546C101.689 69.966 110.438 67.0793 113.299 70.3546C114.646 71.8905 115.477 75.4804 116.344 77.4234C117.728 80.5322 119.15 83.6224 120.645 86.6757C123.579 92.7637 126.736 98.7592 130.224 104.551C140.431 121.538 155.511 142.837 177.273 143.614C182.015 143.705 186.743 143.081 191.3 141.764C197.207 140.154 202.947 141.116 208.983 140.376C221.903 138.803 234.473 133.918 246.599 129.514C273.917 119.595 301.474 111.009 329.252 102.553C356.514 94.2256 383.942 84.5107 412.515 81.994C461.889 77.6454 512.721 98.2411 550.264 129.625C559.092 137.227 567.324 145.498 574.886 154.366C582.187 162.945 592.199 168.757 603.255 170.835C627.687 175.979 653.023 174.814 676.883 167.448C701.966 159.75 721.495 143.485 743.81 130.439C756.859 122.815 770.979 117.338 786.262 116.857C799.792 116.413 813.081 119.762 825.928 123.648C838.774 127.534 850.975 132.068 864.098 133.603C876.063 134.848 888.152 134.009 899.832 131.124C913.62 127.885 926.226 121.446 939.811 117.634C953.396 113.822 968.162 113.415 982.079 110.232C1008.84 103.977 1033.91 92.9488 1059.6 83.3078C1066.82 80.2876 1074.49 78.5049 1082.3 78.034C1090.65 77.812 1098.92 79.5699 1107.13 80.8837C1120.58 83.0303 1134.1 84.7142 1147.53 86.8607C1175.11 91.2833 1201.82 99.814 1229.39 104.348C1255.47 108.715 1282.4 110.658 1308.5 105.365C1335.52 99.8139 1356.38 81.2168 1379.08 66.7277C1403.35 51.2023 1430.28 38.2306 1459.65 37.916C1473.88 37.5734 1487.93 41.165 1500.26 48.2971C1500.76 48.6116 1501.24 47.7975 1500.72 47.5014C1458.14 22.4831 1408.43 46.1691 1371.52 70.5397C1349.61 85.0658 1329.88 100.998 1303.22 105.384C1275.54 109.917 1247.57 106.92 1220.27 101.794C1195.08 97.0753 1170.44 89.4884 1145.19 85.5839C1133.06 83.7335 1120.88 82.1421 1108.73 80.1991C1097.14 78.3486 1085.46 75.8135 1073.67 78.0525C1061.54 80.3471 1049.95 86.065 1038.5 90.5616C1026.62 95.2248 1014.69 99.814 1002.51 103.607C990.446 107.5 978.106 110.481 965.596 112.527C952.565 114.581 940.439 116.005 927.998 120.761C902.158 130.606 876.926 137.267 849.406 130.013C826.832 124.037 804.683 114.081 780.817 116.505C757.524 118.874 738.568 132.641 719.63 145.243C697.777 159.769 674.502 169.78 648.218 172.463C623.374 175.017 593.048 173.795 575.495 153.958C561.863 137.982 546.005 124.059 528.41 112.619C492.547 89.914 449.393 76.5536 406.83 81.6794C382.41 84.6217 358.84 92.5232 335.491 99.6844C309.909 107.512 284.161 114.784 259.021 123.981C247.19 128.311 235.414 132.882 223.287 136.305C216.902 138.336 210.283 139.543 203.593 139.895C201.175 139.895 198.204 139.044 196.026 139.303C193.848 139.562 191.3 140.876 188.975 141.412C160.938 147.926 142.314 123.5 129.726 101.887C123.444 90.8665 117.895 79.4428 113.114 67.6899C113.076 67.5748 112.996 67.4784 112.889 67.4201C112.783 67.3618 112.659 67.3458 112.542 67.3753C94.6195 70.5581 76.3465 70.6507 58.2765 72.7417C37.9732 75.0733 17.6698 78.0525 -2.63354 80.5877C-3.22418 80.5877 -3.22418 81.5869 -2.63354 81.5129L-2.52279 81.4944Z" fill="url(#paint9_radial_201_47)"/>
<path d="M-2.5227 79.1998C24.2962 76.3871 51.4104 72.2606 78.4138 72.5381C83.9511 72.5381 89.4884 72.9452 95.0256 73.0008C99.3447 73.0008 108.075 71.0393 110.991 74.6106C112.837 76.7757 113.852 81.2908 115.034 83.863C116.215 86.4351 117.562 89.2293 118.891 91.8755C121.875 97.8981 125.171 103.76 128.766 109.436C139.73 126.646 155.917 146.797 178.417 145.372C183.056 145.043 187.628 144.072 192.002 142.486C197.428 140.635 202.763 140.857 208.392 139.95C221.479 137.804 234.085 132.16 246.341 127.219C273.205 116.69 300.706 107.877 328.68 100.832C355.979 93.6519 383.647 85.6579 411.979 84.1776C462.11 81.6794 513.053 103.256 551.297 134.843C560.526 142.504 568.389 151.257 576.861 159.695C585.333 168.133 595.319 171.797 606.947 173.962C631.647 178.526 657.084 176.983 681.054 169.465C705.658 161.767 725.481 145.872 748.055 134.085C761.548 127.034 775.871 122.445 791.19 122.26C804.997 122.094 818.619 125.11 832.019 128.089C843.721 130.698 855.46 133.529 867.494 133.788C880.029 133.835 892.492 131.874 904.409 127.978C917.846 123.796 930.25 116.524 944.093 113.526C957.936 110.528 972.444 110.38 986.435 107.456C1012.76 101.905 1037.62 92.0605 1063.24 84.1776C1078.8 79.3849 1092.77 81.2908 1108.49 83.2338C1121.84 84.8807 1135.24 85.3063 1148.64 86.4166C1176.75 88.7482 1204.01 97.3899 1231.7 102.664C1257.12 107.493 1283.38 110.695 1309.22 106.254C1336.48 101.572 1357.21 82.3086 1379.36 67.3939C1403.54 51.1653 1430.45 37.1018 1460.15 36.158C1473.89 35.5673 1487.55 38.679 1499.69 45.1698C1500.22 45.4474 1500.68 44.6517 1500.16 44.3556C1457.31 21.1508 1409 45.7805 1373.07 70.5767C1362.4 77.9785 1352.04 85.7875 1341.15 92.7822C1329.19 100.388 1315.62 105.072 1301.52 106.457C1275.06 109.436 1248.57 105.273 1222.66 99.999C1198.46 95.0768 1174.54 87.823 1149.86 85.6579C1137.86 84.6217 1125.86 84.3071 1113.85 82.9932C1101.46 81.6424 1088.82 78.5522 1076.32 80.1991C1064.51 81.7535 1053.09 86.6017 1041.86 90.4136C1029.87 94.4846 1017.87 98.4816 1005.61 101.868C992.631 105.543 979.398 108.258 966.021 109.991C953.746 111.49 942.321 112.286 930.656 116.82C905.572 126.572 881.873 135.842 854.389 131.771C831.539 128.385 809.279 119.947 785.856 121.612C762.434 123.278 742.905 135.491 723.525 147.611C701.228 161.545 678.064 171.797 651.707 174.702C627.213 177.404 594.894 176.997 576.547 158.252C561.357 142.745 546.277 128.533 527.801 116.949C491.365 94.059 448.082 79.94 404.818 83.789C380.601 85.917 356.976 92.4677 333.535 98.5927C307.694 105.291 281.983 112.083 257.157 121.853C245.953 126.276 234.86 131.105 223.454 134.936C216.873 137.425 209.988 139.012 202.984 139.654C200.914 139.501 198.838 139.458 196.764 139.525C194.401 139.895 191.854 141.579 189.492 142.319C174.726 146.927 161.325 143.596 149.752 133.492C140.935 125.45 133.414 116.086 127.456 105.735C121.031 94.9 115.435 83.5922 110.715 71.909C110.687 71.8129 110.628 71.7285 110.548 71.6684C110.469 71.6084 110.371 71.5759 110.272 71.5759C93.2722 72.9453 76.2174 71.1318 59.181 72.2421C38.527 73.5744 17.9652 76.1095 -2.5227 78.2746C-3.09488 78.2746 -3.11334 79.2553 -2.5227 79.1998Z" fill="url(#paint10_radial_201_47)"/>
<path d="M-2.67051 76.8867C23.447 74.7032 50.3028 71.0947 76.531 73.3338C82.0683 73.8149 87.6055 74.7772 93.2351 75.5359C95.8192 75.8874 98.3848 76.202 100.987 76.4241C105.879 76.8312 107.078 77.4419 109.349 81.1613C112.339 86.065 114.203 92.005 116.879 97.1493C119.946 103.075 123.348 108.821 127.068 114.359C138.678 131.475 155.548 149.924 178.122 147.241C182.791 146.633 187.355 145.388 191.688 143.54C196.985 141.338 201.987 140.82 207.506 139.691C219.19 137.341 230.338 131.827 241.173 126.997C268.187 115.084 296.329 105.928 325.173 99.6659C352.453 93.5594 380.306 87.1938 408.361 86.4906C458.566 85.2323 508.642 106.328 547.901 136.768C557.206 144.264 566.068 152.296 574.443 160.824C582.97 169.132 592.273 173.444 603.864 175.905C628.504 180.995 653.991 180.234 678.285 173.684C703.221 166.986 723.783 152.46 746.486 140.839C759.591 134.14 773.36 129.218 788.108 128.015C801.785 126.905 815.536 128.811 829.065 130.624C841.986 132.345 855.146 134.473 868.288 133.825C880.304 133.077 892.154 130.628 903.486 126.553C916.702 121.964 929.013 114.137 942.672 111.046C956.33 107.956 970.764 108.511 984.589 106.291C1011.74 101.942 1037.69 93.1523 1064.23 86.287C1079.89 82.253 1093.88 84.4366 1109.62 85.8799C1122.95 87.0457 1136.16 86.2131 1149.51 86.2686C1177.19 86.3981 1204.42 94.9287 1231.31 100.776C1256.95 106.328 1283.53 111.213 1309.79 107.475C1336.87 103.644 1356.93 84.3441 1378.49 69.0778C1402.27 52.2386 1428.48 37.1388 1458.12 34.7332C1472.25 33.4393 1486.46 36.0571 1499.2 42.3016C1499.74 42.5606 1500.2 41.7649 1499.68 41.5059C1455.53 19.5964 1407.93 46.6686 1372.33 72.4641C1361.55 80.273 1351.06 88.6927 1339.79 95.7615C1327.9 103.163 1315 106.55 1301.03 107.53C1274.39 109.381 1248.13 103.681 1222.29 97.9265C1198.73 92.6527 1175.05 85.6949 1150.76 85.4358C1138.84 85.3063 1126.93 86.1575 1115.01 85.4358C1102.09 84.6401 1089.17 81.4943 1076.14 83.0487C1064.6 84.4366 1053.34 88.4336 1042.21 91.6164C1029.72 95.1878 1017.22 98.6852 1004.54 101.535C991.02 104.678 977.288 106.83 963.455 107.974C951.919 108.863 941.435 109.714 930.6 114.155C918.012 119.318 906.052 125.387 892.836 128.959C880.607 132.314 867.912 133.633 855.257 132.863C831.114 131.309 807.064 124.499 782.755 127.774C760.218 130.809 740.986 142.8 721.624 153.903C698.884 166.949 675.074 175.868 648.79 177.959C622.506 180.05 592.716 178.107 573.409 158.696C558.535 143.576 541.844 130.367 523.721 119.373C486.529 97.0197 443.634 83.3263 400.056 86.176C375.636 87.7489 351.457 93.1523 327.61 98.4076C302.932 103.848 278.549 110.065 255.219 120.002C243.554 124.962 232.128 130.587 220.149 135.047C214.068 137.527 207.668 139.134 201.138 139.821C195.749 140.191 192.408 142.689 187.055 144.41C172.732 148.999 159.535 146.168 147.962 136.749C138.951 129.093 131.234 120.026 125.111 109.899C118.501 99.1818 112.85 87.8993 108.223 76.1835C108.188 76.0867 108.125 76.002 108.044 75.9397C107.962 75.8773 107.864 75.8399 107.761 75.8319C90.8725 75.3693 74.5376 71.6499 57.5197 71.946C37.4009 72.2975 17.3191 74.2776 -2.72588 75.9615C-3.31652 75.9615 -3.31652 76.9422 -2.72588 76.8867H-2.67051Z" fill="url(#paint11_radial_201_47)"/>
<path d="M-2.72588 74.5922C22.9671 72.9638 50.192 69.7254 75.7742 74.148C80.7248 75.132 85.6224 76.3672 90.448 77.8489C96.5575 79.5699 103.553 79.6069 106.857 85.4173C112.856 96.0205 117.138 107.16 124.17 117.282C135.614 133.714 152.65 151.682 174.448 149.628C184.914 148.629 193.257 142.578 203.224 140.376C214.963 137.896 225.631 132.456 236.318 127.182C249.626 120.613 262.934 114.062 277.036 109.362C290.664 105.011 304.562 101.556 318.639 99.0182C347.23 93.4669 376.707 88.4891 405.888 88.6927C456.702 89.0443 506.777 110.491 547.033 140.691C557.148 148.296 566.063 156.975 575.569 165.265C584.521 173.074 594.672 176.682 606.227 178.921C631.107 183.663 656.73 182.765 681.22 176.294C706.673 169.558 728.084 154.902 751.82 144.207C765.54 137.791 780.343 134.025 795.454 133.104C808.374 132.438 821.295 133.529 834.215 134.122C860.683 135.38 884.567 133.048 909.171 122.501C922.571 116.746 935.012 108.585 949.778 107.049C962.864 105.68 975.988 105.846 989.056 104.107C1016.24 100.406 1042.4 92.3566 1069.33 87.5639C1084.33 84.8807 1098.58 88.0635 1113.63 88.5446C1126.93 88.9887 1139.82 86.6942 1153.05 85.8985C1180.55 84.159 1208.42 93.3003 1234.93 99.7029C1260.25 105.846 1286.79 111.934 1312.99 108.326C1339.18 104.718 1358.56 85.0288 1378.86 69.966C1402.25 52.6087 1427.96 36.6577 1457.47 33.2343C1471.54 31.4382 1485.83 33.5239 1498.8 39.2668C1499.33 39.5074 1499.81 38.7117 1499.26 38.4711C1449.66 16.0435 1400.25 52.4236 1362.49 81.1613C1351.01 89.914 1339.38 99.9065 1325.57 104.533C1312.65 108.826 1298.52 108.955 1285.13 107.937C1256.4 105.754 1228.49 96.8347 1200.45 90.5987C1187.97 87.8415 1175.31 85.0473 1162.46 84.7512C1149.62 84.4551 1137.2 87.1753 1124.48 87.6564C1110.06 88.2116 1095.91 84.8437 1081.57 85.2693C1068.98 85.6394 1056.61 89.3588 1044.41 92.2086C1016.95 98.6482 989.351 104.533 961.074 105.569C948.338 106.032 937.504 107.975 926.005 113.507C912.586 119.929 899.352 126.22 884.863 129.902C858.265 136.675 831.243 132.123 804.221 131.994C778.528 131.864 756.232 140.321 733.879 152.349C708.223 166.061 683.195 177.57 653.866 180.309C626.364 182.881 593.971 181.234 572.911 161.49C538.266 128.977 495.961 104.126 449.522 93.1153C424.493 87.1938 399.096 86.8792 373.587 89.7289C346.017 92.5804 318.686 97.4039 291.802 104.163C266.404 110.787 244.329 123.389 220.482 133.77C216.44 135.609 212.27 137.149 208.004 138.378C205.07 139.192 201.194 139.044 198.499 139.988C193.478 141.838 189.03 145.187 183.733 146.779C168.044 151.497 154.071 146.649 142.092 136.157C132.643 127.546 124.651 117.453 118.43 106.272C115.272 100.835 112.395 95.2395 109.81 89.5069C107.964 85.6394 107.724 81.6424 104.273 79.9215C102.095 78.8667 98.4771 78.9037 95.9853 78.2746C93.2167 77.5899 90.448 76.7572 87.7348 75.9985C82.9724 74.6249 78.1264 73.5617 73.2271 72.8157C61.5656 71.4472 49.8124 71.0326 38.0838 71.5759C24.4806 71.909 10.8774 72.7972 -2.72588 73.7594C-3.31652 73.7594 -3.33498 74.7217 -2.72588 74.6847V74.5922Z" fill="url(#paint12_radial_201_47)"/>
<path d="M-2.79971 72.2976C22.5056 71.2243 50.2105 68.4301 74.999 74.9622C80.8052 76.7275 86.4745 78.917 91.9615 81.5129C97.6465 83.937 102.261 84.6772 104.882 90.7652C109.734 102.202 115.93 113.017 123.339 122.982C135.189 138.637 152.17 154.088 173.175 151.664C185.283 150.276 194.863 142.985 206.232 139.599C217.602 136.213 227.975 129.68 238.293 124.018C251.199 116.585 264.799 110.436 278.9 105.661C292.584 101.539 306.568 98.4948 320.725 96.5572C349.426 92.2826 379.106 89.1553 408.14 91.0058C459.157 94.0775 508.752 116.801 549.433 146.982C559.012 154.088 567.54 162.397 576.953 169.65C587.031 177.385 598.954 180.383 611.284 182.4C636.224 186.433 661.733 185.122 686.13 178.551C712.247 171.482 734.839 156.494 759.96 146.927C786.096 136.953 813.007 138.285 840.435 136.934C865.796 135.676 889.237 130.439 912.143 119.17C925.561 112.582 937.319 104.958 952.749 104.237C967.091 103.552 981.303 103.145 995.59 101.553C1008.97 100.054 1022.28 98.056 1035.55 95.8355C1049.73 93.4484 1064.09 89.84 1078.46 89.0998C1092.38 88.3596 1106.15 91.783 1120.07 90.9503C1132.53 90.1916 1144.52 86.4721 1156.98 85.1768C1184.26 82.3086 1212.69 91.8755 1238.73 98.9257C1263.67 105.68 1290.19 113.026 1316.25 109.307C1341.52 105.606 1360.98 85.0472 1380.36 70.04C1403.06 52.4791 1427.96 36.121 1456.92 31.8095C1470.93 29.5519 1485.29 31.1574 1498.47 36.4541C1499.02 36.6762 1499.26 35.788 1498.71 35.5659C1448.43 14.8962 1400.24 53.1453 1363.02 82.5306C1351.03 92.005 1338.83 102.886 1323.75 106.864C1309.81 110.565 1294.53 109.64 1280.41 107.53C1252.72 103.404 1226.12 93.8184 1198.79 88.0265C1186.74 85.4914 1174.46 83.1968 1162.11 83.8445C1149.77 84.4921 1138.41 87.9525 1126.45 89.3959C1112.11 91.1538 1098.44 88.2671 1084.15 88.0635C1071.36 87.8785 1058.7 90.8948 1046.14 93.0968C1017.2 98.1301 987.93 102.756 958.508 103.219C946.938 103.163 935.53 105.952 925.285 111.342C912.715 117.819 900.348 124.296 886.819 128.589C861.144 136.879 834.178 136.12 807.451 137.008C781.482 137.896 758.742 145.465 735.578 156.919C709.552 169.761 684.118 180.642 654.844 183.122C627.398 185.435 594.82 183.788 573.04 165.135C536.383 133.677 494.909 108.493 447.824 96.3721C422.795 89.9325 397.25 88.7297 371.52 90.3766C344.572 92.0976 317.181 94.9658 290.916 101.479C265.352 107.789 243.867 120.909 220.629 132.678C213.929 136.065 207.248 137.822 200.326 140.08C194.586 141.93 189.51 146.279 183.585 148.333C169.391 153.274 155.788 150.813 143.717 142.079C132.956 134.288 124.373 123.666 117.359 112.471C114.005 107.147 110.954 101.636 108.223 95.965C106.709 92.7822 105.62 86.1206 102.999 84.3626C100.378 82.6047 96.096 82.2161 93.4566 81.1613C90.5218 79.9585 87.6794 78.6077 84.7446 77.4604C80.1625 75.538 75.4019 74.0752 70.5323 73.0933C59.7501 71.2292 48.8215 70.3497 37.8808 70.4656C24.3145 70.3176 10.7482 70.8727 -2.72588 71.4649C-3.31652 71.4649 -3.31652 72.4086 -2.72588 72.3901L-2.79971 72.2976Z" fill="url(#paint13_radial_201_47)"/>
<path d="M-2.85564 70.0585C21.5822 69.5404 49.0656 67.4123 72.6359 75.3138C78.4886 77.4845 84.0646 80.3418 89.2477 83.826C94.3236 86.9717 99.141 88.4706 102.002 93.911C107.835 105.014 112.781 115.913 120.459 125.887C132.752 141.653 150.508 156.808 171.827 153.903C184.36 152.201 193.201 144.447 204.608 140.173C215.553 136.065 225.317 129.847 235.266 123.777C247.282 116.376 259.519 109.473 272.808 104.699C287.17 99.8374 302.028 96.5975 317.107 95.0397C345.155 91.4394 373.489 90.6212 401.698 92.5971C454.819 96.7977 505.669 120.039 548.712 150.72C558.569 157.752 567.502 166.042 577.414 172.926C587.787 180.161 600.025 182.992 612.317 184.954C637.703 188.999 663.646 187.79 688.547 181.401C714.738 174.647 737.977 160.546 763.374 151.608C788.772 142.671 815.055 142.985 841.136 139.358C866.545 136.161 891.147 128.294 913.711 116.154C926.908 108.955 938.5 101.35 954.115 101.257C968.087 101.128 981.93 101.627 995.903 100.665C1009.88 99.7029 1023.59 98.0745 1037.45 96.2796C1051.31 94.4846 1065.47 91.7829 1079.53 91.5423C1092.69 91.3018 1105.65 94.4291 1118.83 93.2818C1130.62 92.2455 1141.59 88.008 1153.03 85.3803C1181.2 78.9222 1211.25 88.7482 1238.14 96.8162C1263.28 104.385 1290.06 113.618 1316.73 110.473C1341.78 107.512 1360.79 86.8052 1379.49 71.6129C1402.15 53.1083 1426.8 35.6029 1456.11 30.1625C1470.07 27.4083 1484.51 28.5084 1497.89 33.3453C1498.45 33.5674 1498.69 32.6606 1498.13 32.4571C1446.54 13.3603 1399.44 54.2185 1362.34 84.5106C1350.84 93.8925 1339.12 104.496 1324.37 108.16C1309.63 111.823 1294.03 110.01 1279.6 107.105C1251.63 101.553 1225.02 90.7652 1197 85.2878C1184.91 82.9192 1172.6 81.2538 1160.3 83.0487C1149.1 84.6771 1138.56 89.0072 1127.49 91.1168C1113.11 93.8555 1099.6 91.1168 1085.2 90.6542C1070.8 90.1915 1056.91 92.7822 1042.93 94.6326C1015.06 98.3336 987.357 101.054 959.209 100.406C947.762 99.847 936.382 102.459 926.318 107.956C913.859 114.692 901.861 121.742 888.609 126.923C863.765 136.62 837.038 139.469 810.663 141.616C798.55 142.348 786.528 144.175 774.744 147.075C762.312 150.681 750.195 155.297 738.512 160.879C712.081 172.852 686.388 183.344 657.169 185.712C630.018 187.933 596.462 186.656 574.11 169.262C554.268 153.829 534.685 139.025 512.536 126.942C490.943 114.96 468.022 105.564 444.243 98.9442C418.9 92.079 392.893 90.247 366.721 90.8207C339.33 91.4313 311.256 92.8562 284.658 99.925C259.667 106.55 239.566 121.15 217.214 133.326C211.566 136.416 205.438 137.822 199.716 140.432C193.201 143.411 188.107 148.222 181.056 150.628C166.862 155.457 153.148 152.904 140.966 144.447C130.076 136.897 121.309 126.405 114.221 115.265C110.901 110.02 107.905 104.576 105.25 98.9627C102.943 94.096 102.833 89.7104 98.1627 87.5083C88.3802 82.7342 79.8897 76.0725 69.2212 73.2228C58.5148 70.6497 47.5596 69.2598 36.5513 69.0778C23.428 68.5041 10.2677 68.7262 -2.8741 69.0778C-3.46474 69.0778 -3.46474 70.0215 -2.8741 70.003L-2.85564 70.0585Z" fill="url(#paint14_radial_201_47)"/>
<path d="M-2.92948 67.6899C21.7668 67.6899 51.465 65.8395 74.2602 76.9422C79.2053 79.6831 83.793 83.027 87.9188 86.8977C92.2194 90.5987 96.7969 92.9303 99.4363 98.0005C104.974 108.733 109.994 119.17 117.599 128.681C130.15 144.41 148.349 158.936 169.631 156.105C181.093 154.588 189.823 148.999 199.163 142.856C203.888 139.784 209.573 138.082 214.464 135.25C220.186 131.957 225.539 128.126 231.076 124.407C241.252 117.173 252.02 110.815 263.266 105.402C278.198 98.5927 294.348 95.2248 310.591 93.4854C338.832 90.687 367.286 90.8358 395.496 93.9295C449.946 99.4809 501.295 122.852 546.35 153.311C556.834 160.398 566.487 168.707 577.045 175.627C587.215 182.289 598.917 185.176 610.785 187.23C636.605 191.662 663.044 190.939 688.584 185.102C714.997 179.051 738.881 166.079 764.408 157.345C789.935 148.611 817.233 147.704 843.499 141.616C868.845 136.011 893.143 126.405 915.483 113.156C928.551 105.31 939.866 98.1301 955.758 98.5742C969.841 98.9813 983.813 99.7955 997.915 99.3698C1026.39 98.5186 1055.13 93.0783 1083.67 94.1701C1096.33 94.6512 1108.73 97.4084 1121.4 95.4469C1133.08 93.5964 1143.55 88.3226 1154.77 84.9177C1182.8 76.3871 1213.92 86.7682 1240.69 95.6874C1265.53 103.941 1292.18 114.618 1318.91 111.62C1343.9 108.807 1362.86 87.0087 1381.06 71.5944C1403.04 52.9602 1426.85 35.0107 1455.57 28.7007C1469.48 25.4419 1484 26.0368 1497.6 30.4216C1498.15 30.6067 1498.39 29.7184 1497.84 29.5334C1446.01 12.3796 1400.47 53.9965 1364.15 84.8252C1352.54 94.6882 1340.54 106.124 1325.26 109.621C1311.08 112.878 1295.73 110.639 1281.81 107.382C1253.94 100.887 1227.71 88.9703 1199.53 83.5299C1187.84 81.2538 1175.83 79.7179 1163.98 81.6794C1152.4 83.6594 1141.94 89.0813 1130.75 92.3751C1116.76 96.4091 1103.6 94.7067 1089.37 93.5409C1075.14 92.3751 1060.87 94.059 1046.68 95.2433C1018.07 97.6304 989.461 99.4624 960.852 97.8525C948.707 97.1678 938.426 98.6667 927.628 104.625C916 111.083 905.036 118.43 892.965 124.129C868.176 135.842 840.988 142.338 813.93 146.094C801.138 147.852 788.347 149.406 775.852 152.811C762.607 156.708 749.629 161.462 736.998 167.041C711.065 177.941 685.317 186.878 657.04 188.655C629.594 190.394 596.61 188.655 573.63 172.001C552.736 156.827 532.193 142.005 509.342 129.81C487.038 117.671 463.475 108.016 439.074 101.017C413.511 93.911 387.153 91.4684 360.703 90.9687C333.331 90.4321 305.035 90.6542 278.604 98.6112C253.391 106.198 234.546 123.389 211.898 135.731C206.749 138.544 201.728 139.988 197.132 143.448C191.534 147.635 185.302 150.896 178.675 153.107C164.518 157.733 150.73 155.106 138.474 146.945C127.123 139.358 117.968 128.644 110.695 117.171C107.613 112.302 104.845 107.24 102.408 102.016C101.301 99.6474 100.396 94.8362 98.5688 93.0043C97.0364 91.888 95.4125 90.9037 93.7145 90.062C85.1501 84.2701 78.8007 77.1088 68.7782 73.5929C58.3866 70.0585 47.2013 68.7447 36.3667 67.8935C23.2988 66.8572 10.1754 66.7647 -2.92948 66.7647C-3.05186 66.7647 -3.16923 66.8134 -3.25576 66.9002C-3.3423 66.9869 -3.39092 67.1046 -3.39092 67.2273C-3.39092 67.35 -3.3423 67.4677 -3.25576 67.5545C-3.16923 67.6412 -3.05186 67.6899 -2.92948 67.6899V67.6899Z" fill="url(#paint15_radial_201_47)"/>
<path d="M-2.98485 65.3769C21.01 65.895 50.376 64.8772 72.0268 77.0533C76.8361 79.9817 81.1221 83.697 84.7071 88.045C88.1402 91.9125 93.4745 95.4469 96.0032 99.9435C101.743 110.047 105.804 120.299 113.076 129.68C125.665 145.761 144.288 160.731 165.865 158.714C176.584 157.442 186.774 153.342 195.397 146.834C205.143 139.784 215.701 134.288 225.428 127.016C235.155 119.743 244.882 112.212 255.587 106.235C269.284 98.8057 284.269 94.064 299.738 92.2641C328.236 88.5632 357.99 90.8947 386.489 94.4476C442.692 101.461 494.908 124.684 542.4 154.976C553.364 161.953 563.7 169.78 574.59 176.941C584.815 183.603 596.075 186.897 607.98 189.173C634.476 194.201 661.689 194.082 688.141 188.821C715.477 183.399 740.671 171.057 767.158 162.582C793.312 154.162 820.796 151.96 846.932 143.355C872.045 135.236 895.967 123.799 918.067 109.344C931.098 100.758 942.283 94.9473 958.36 96.1501C972.591 97.2233 986.748 98.1856 1001.02 98.2781C1029.72 98.4816 1058.94 94.6882 1087.54 97.1308C1100.15 98.2041 1112.44 100.369 1124.94 97.2604C1136.55 94.3921 1146.61 87.7675 1157.81 83.8445C1185.59 74.1111 1217.69 85.4729 1244.01 95.1508C1267.86 103.922 1293.44 115.339 1319.46 113.026C1344.57 110.787 1363.45 88.2856 1381.2 72.5381C1402.87 53.3488 1426.15 34.6407 1454.74 27.3128C1468.58 23.5605 1483.17 23.6436 1496.97 27.5534C1497.09 27.5877 1497.21 27.5739 1497.32 27.5149C1497.43 27.4559 1497.51 27.3566 1497.54 27.2388C1497.58 27.121 1497.56 26.9944 1497.5 26.8868C1497.45 26.7793 1497.35 26.6995 1497.23 26.6652C1444.7 11.2878 1400.46 54.5701 1364.56 86.1205C1353.09 96.2056 1341.23 107.863 1325.8 111.176C1311.75 114.192 1296.63 111.379 1283.01 107.66C1255.93 100.258 1230.72 87.6564 1203.09 82.0865C1191.37 79.7179 1179.09 78.108 1167.26 80.2361C1155.43 82.3641 1145.11 88.8592 1133.93 93.2818C1120.36 98.6667 1107.35 98.2781 1093.12 96.7052C1078.89 95.1323 1064.47 95.7429 1050.08 96.2426C1021.17 97.2603 992.267 98.093 963.325 95.6134C951.162 94.5587 940.622 94.7992 929.658 100.776C918.03 107.105 907.509 115.247 895.789 121.612C871.071 135.055 844.506 144.758 816.956 150.406C804.331 152.959 791.577 154.717 779.118 158.011C765.114 161.964 751.336 166.684 737.847 172.149C710.991 182.474 684.32 190.653 655.268 191.782C626.825 192.911 594.801 190.209 570.861 173.499C527.874 143.448 482.265 116.69 431.433 102.423C405.426 95.0213 378.478 92.079 351.567 90.5061C324.268 88.9147 295.53 88.6557 269.615 98.5742C258.138 103.278 247.317 109.454 237.425 116.949C227.034 124.462 217.122 133.252 205.66 138.988C194.198 144.725 185.744 153.533 172.824 156.623C158.427 160.047 144.823 156.105 132.955 147.685C121.859 139.475 112.566 129.063 105.656 117.097C102.297 111.546 100.119 105.365 96.9999 99.6845C94.8588 95.817 91.4626 94.0035 88.3617 90.6727C81.6247 83.4929 75.9213 77.2013 66.6187 73.4448C56.6701 69.4108 45.8355 67.7085 35.2408 66.5427C22.5974 65.1363 9.86163 64.6922 -2.85564 64.4516C-2.97803 64.4516 -3.09539 64.5003 -3.18193 64.5871C-3.26847 64.6739 -3.31708 64.7915 -3.31708 64.9142C-3.31708 65.0369 -3.26847 65.1546 -3.18193 65.2414C-3.09539 65.3281 -2.97803 65.3769 -2.85564 65.3769H-2.98485Z" fill="url(#paint16_radial_201_47)"/>
<path d="M-3.04021 63.0823C20.4747 64.1 49.2501 63.9705 69.9042 76.9422C75.8106 80.6432 79.7605 85.7504 83.6551 91.4313C86.8482 96.1315 91.4442 100.184 93.9729 105.199C98.8457 114.895 103.368 124.222 110.197 132.789C122.582 148.278 141.575 163.229 162.58 160.75C174.134 159.38 184.729 153.699 194.382 147.482C204.939 141.041 215.097 133.966 224.8 126.294C235.136 117.671 245.436 108.881 257.249 102.331C271.486 94.7446 287.187 90.3264 303.282 89.3773C332.814 87.0828 363.675 91.5424 392.709 97.0568C447.823 107.53 499.025 132.216 546.368 161.823C557.332 168.67 567.816 176.738 579.278 182.715C590.74 188.692 603.421 191.171 615.935 193.114C642.499 197.218 669.582 196.504 695.893 191.005C723.949 185.12 750.177 173.148 777.716 165.431C790.359 161.878 803.279 159.602 816.015 156.42C827.948 153.305 839.613 149.239 850.9 144.262C876.332 133.147 900.559 119.444 923.198 103.367C928.865 99.4254 934.845 95.6319 941.656 93.9665C949.371 92.1161 957.253 93.2448 964.986 94.1515C979.974 95.8724 995.017 96.8717 1010.08 97.4269C1038.63 98.4631 1067.3 97.1493 1095.78 100.554C1108.7 102.127 1120.6 102.09 1132.69 96.8532C1143.31 92.2641 1152.61 85.0658 1163.65 81.3278C1190.61 72.2235 1222.51 84.4551 1247.54 94.6141C1271.2 104.218 1297.72 117.504 1324.06 113.859C1335.28 112.286 1344.36 106.365 1352.84 99.2218C1363.65 90.1731 1373.8 80.3656 1384.21 70.8172C1404.74 51.9055 1426.89 33.6414 1454.15 25.6844C1467.93 21.4506 1482.6 21.035 1496.6 24.4816C1496.71 24.4999 1496.83 24.4757 1496.93 24.4137C1497.02 24.3517 1497.09 24.2563 1497.12 24.1459C1497.15 24.0355 1497.14 23.9179 1497.09 23.8159C1497.04 23.7139 1496.95 23.6346 1496.84 23.5934C1444.87 10.2886 1402.38 53.0897 1367.64 84.9547C1356.69 95.0027 1345.1 107.29 1330.5 111.564C1315.9 115.839 1300.32 112.527 1286.35 108.363C1259.53 100.406 1234.93 86.5832 1207.43 80.6062C1196.35 78.1821 1184.54 76.4796 1173.19 78.145C1161.12 79.9955 1151.04 86.1575 1140.61 91.9125C1128.71 98.8407 1114.92 101.796 1101.24 100.351C1086.73 98.9442 1072.54 97.6674 1057.94 97.4639C1028.41 97.0753 998.764 96.9457 969.342 93.7629C957.253 92.4676 945.661 90.4506 934.273 95.7059C922.054 101.257 911.478 110.861 900.089 117.911C876.56 132.889 851.174 144.709 824.579 153.07C811.825 156.919 798.739 159.121 785.818 162.323C771.588 165.838 757.745 170.631 743.938 175.479C716.252 185.194 688.861 193.373 659.366 194.595C631.55 195.723 598.862 193.632 574.461 178.884C551.204 164.858 529.055 149.628 504.949 136.953C481.326 124.277 456.617 113.749 431.119 105.495C404.688 97.2418 377.241 92.7822 349.758 89.8585C322.275 86.9348 292.54 85.6209 266.441 96.7607C255.925 101.49 246.076 107.587 237.148 114.895C226.24 123.518 215.719 132.031 204.128 139.747C192.869 147.26 181.72 155.383 168.357 158.677C153.997 162.212 140.504 157.678 128.802 149.295C118.368 141.535 109.583 131.765 102.962 120.558C99.4917 114.858 97.4244 108.4 94.139 102.701C91.4995 98.2226 87.0143 94.3921 83.9504 89.9325C71.953 72.4456 53.1447 67.7269 33.0075 64.9142C20.9546 63.3598 8.95722 62.6567 -3.04021 62.1571C-3.63086 62.1571 -3.63086 63.0638 -3.04021 63.0823Z" fill="url(#paint17_radial_201_47)"/>
<path d="M-3.11316 60.8062C20.2172 62.3051 49.6017 63.0268 69.2037 77.5899C74.9993 81.9015 78.5986 87.8229 81.9394 94.1145C84.9664 99.8324 89.1748 104.736 91.9434 110.528C96.1398 119.886 101.505 128.672 107.909 136.675C121.125 152.478 140.893 166.283 162.414 163.026C174.467 161.175 185.431 155.087 195.306 148.222C205.66 141.197 215.527 133.475 224.838 125.11C234.325 116.357 243.794 107.512 254.869 100.776C268.474 92.7237 283.815 88.0773 299.591 87.2308C329.456 85.1213 360.298 91.4684 389.295 98.13C445.702 111.083 497.789 136.99 547.237 166.597C558.071 173.074 568.555 180.55 579.98 185.972C591.959 191.634 605.397 194.225 618.428 196.168C645.033 200.132 672.115 199.568 698.534 194.502C726.847 189.08 753.722 178.218 781.463 170.557C794.476 166.967 807.766 164.321 820.594 160.065C832.572 155.862 844.184 150.676 855.312 144.558C879.787 131.605 902.01 116.468 924.362 100.258C930.416 95.8725 936.784 92.079 944.278 90.8577C952.676 89.4698 961.093 91.3574 969.417 92.5231C983.131 94.3736 996.9 95.8355 1010.69 96.9087C1039.46 99.1663 1068.26 99.962 1096.9 103.607C1108.97 105.143 1120.31 105.088 1131.55 99.9065C1141.85 95.1323 1150.43 87.4159 1160.62 82.4566C1188.69 68.8002 1223.25 82.179 1249.68 93.9295C1272.49 104.07 1297.67 117.985 1323.51 115.561C1334.93 114.507 1344.03 108.918 1352.63 101.664C1363.39 92.5786 1373.36 82.5121 1383.49 72.7232C1403.98 52.9232 1425.95 33.4008 1453.45 24.3891C1467.16 19.6598 1481.89 18.739 1496.09 21.7244C1496.66 21.854 1496.92 20.9657 1496.33 20.8362C1443.13 9.12275 1401.79 54.3666 1367.12 87.2493C1356.29 97.5194 1344.84 109.788 1329.93 113.6C1315.46 117.301 1299.42 113.026 1285.63 108.234C1259.05 98.9812 1234.89 84.1775 1207.08 78.4226C1195.49 76.017 1183.08 74.6291 1171.53 77.4418C1159.97 80.2545 1150.71 87.3418 1140.89 93.5779C1128.87 101.22 1116.71 104.681 1102.44 103.348C1087.49 101.923 1072.72 99.888 1057.72 98.9998C1027.8 97.1493 997.86 95.6689 968.162 91.4313C957.087 89.8399 946.013 87.7304 935.4 92.4861C923.107 97.9265 912.752 108.086 901.752 115.672C879.252 131.179 854.74 145.798 829.306 155.901C816.385 161.046 802.8 164.062 789.345 167.504C775.114 171.205 761.16 175.609 747.188 180.106C719.206 189.099 691.317 196.76 661.748 197.685C633.286 198.666 600.339 196.371 574.997 182.345C550.578 168.744 527.413 153.329 502.643 140.376C478.648 127.645 453.712 116.782 428.056 107.882C400.618 98.9097 372.421 92.4619 343.816 88.6186C317.975 84.9177 290.049 83.3078 265.519 94.059C222.291 112.971 181.241 188.007 127.751 153.274C116.683 145.841 107.351 136.094 100.397 124.703C96.8531 119.151 94.8597 112.619 91.5373 107.012C88.7872 102.479 85.2802 98.4446 82.7331 93.6334C77.8972 84.5106 72.5076 77.6269 63.2603 72.8342C54.0131 68.0415 43.1231 65.4323 32.6761 63.5819C20.8182 61.7284 8.87242 60.4931 -3.11316 59.881C-3.70381 59.881 -3.70381 60.7692 -3.11316 60.8062V60.8062Z" fill="url(#paint18_radial_201_47)"/>
<path d="M-3.16865 58.4746C20.1064 60.5101 50.9859 62.083 69.222 78.8297C77.8602 86.7867 80.5734 99.0553 86.5352 108.881C92.497 118.707 96.4839 129.495 104.125 138.692C117.452 154.773 137.478 168.133 159.166 165.69C182.459 163.007 202.357 145.095 218.968 129.736C228.197 121.094 236.503 111.509 246.507 103.663C258.113 94.4223 271.88 88.3075 286.505 85.8985C317.661 80.8652 350.386 89.5069 380.398 97.3159C437.912 112.268 490.886 138.618 542.419 167.744C554.029 174.295 565.362 181.641 577.489 187.341C589.615 193.04 602.517 195.908 615.493 198.092C642.147 202.563 669.338 202.781 696.06 198.74C725.592 194.262 753.925 184.288 782.608 176.183C795.676 172.482 808.984 169.373 821.645 164.432C833.101 159.723 844.109 153.988 854.537 147.297C877.923 132.847 900.381 116.939 921.778 99.6659C927.758 94.8547 934.144 90.0435 941.749 88.193C950.535 86.0465 959.542 88.1931 968.236 89.7845C982.485 92.2826 996.808 94.2811 1011.17 96.002C1040.61 99.5549 1070.07 102.59 1099.47 106.439C1111.06 107.956 1121.97 107.234 1132.43 101.757C1142.9 96.2796 1151.46 87.3233 1161.97 81.4019C1188.93 66.3206 1223.47 79.3293 1249.03 91.5239C1271.6 102.294 1295.73 117.227 1321.61 116.764C1347.48 116.302 1366.2 91.0427 1382.85 74.2035C1403.32 53.5154 1424.93 32.6977 1452.78 22.5756C1466.45 17.3695 1481.26 15.9442 1495.66 18.4491C1496.23 18.5601 1496.49 17.6719 1495.9 17.5609C1441.45 7.47588 1401.36 55.1808 1366.7 89.0813C1355.07 100.462 1342.7 113.896 1325.57 115.598C1311.21 117.023 1296.49 112.194 1283.38 106.753C1257.82 96.15 1234.47 81.1428 1206.91 75.7764C1194.82 73.4264 1181.94 72.5751 1170.11 76.6462C1159.57 80.3471 1151.17 87.749 1142.42 94.1886C1130.7 102.793 1118.43 107.271 1103.81 105.883C1088.8 104.477 1073.87 101.664 1058.84 100.092C1028.2 96.8902 997.528 93.874 967.165 88.5076C956.091 86.5276 945.164 84.6216 934.551 89.8214C921.962 96.002 911.386 107.068 900.238 115.358C878.901 131.253 856.143 147.001 832.148 158.64C818.84 165.098 804.701 168.966 790.508 172.852C775.871 176.867 761.363 181.308 746.781 185.583C718.468 193.854 689.988 200.183 660.326 200.479C630.665 200.775 597.884 197.407 571.379 182.992C522.208 156.235 474.477 127.33 421.43 108.585C393.346 98.6238 364.449 91.138 335.067 86.2131C308.838 81.846 280.764 81.3463 257.083 95.1508C247.154 101.311 238.064 108.738 230.043 117.245C220.925 126.387 211.585 135.028 201.692 143.263C190.618 152.515 177.974 161.027 163.688 164.006C149.402 166.986 136.002 163.081 124.004 155.383C112.9 148.003 103.575 138.237 96.7053 126.794C93.4568 121.483 91.7403 115.339 88.6209 110.14C85.3847 104.929 82.5108 99.5 80.0197 93.8925C71.3077 73.3709 52.1672 66.2466 31.5685 62.1016C20.0815 59.9469 8.48489 58.4272 -3.16865 57.5494C-3.75929 57.5494 -3.75929 58.4191 -3.16865 58.4746Z" fill="url(#paint19_radial_201_47)"/>
<path d="M-3.22409 56.18C19.9402 58.7152 50.6352 61.3058 67.9853 79.0517C77.2141 88.5076 79.2444 103.274 85.1139 114.858C90.282 125.054 94.8595 134.806 102.556 143.466C116.344 159.01 136.5 170.798 157.929 168.096C182.718 164.969 202.763 146.094 219.337 128.811C227.939 119.836 235.654 110.084 245.178 101.979C257.683 91.1089 273.231 84.3749 289.698 82.6971C319.23 79.6994 349.205 89.0998 377.131 97.5934C434.793 115.136 488.061 142.56 540.979 171.057C552.884 177.459 564.66 184.436 577.009 189.95C589.357 195.464 602.166 198.314 615.16 200.59C642.764 205.423 670.943 205.991 698.718 202.274C728.065 198.314 756.545 189.746 784.933 181.549C797.244 177.996 809.666 174.573 821.424 169.41C834.344 163.729 846.139 155.809 857.656 147.63C880.839 131.161 902.527 113.267 924.454 95.2248C929.489 90.692 935.456 87.3248 941.933 85.3618C951.162 82.9932 960.963 85.9355 970.063 87.8044C985.272 90.9132 1000.59 93.5594 1015.93 96.002C1030.47 98.3151 1045.06 100.425 1059.62 102.608C1073.81 104.718 1087.93 107.789 1102.07 109.547C1114.03 111.028 1125.05 109.251 1135.3 102.701C1144.99 96.5016 1152.63 87.6564 1162.26 81.3648C1189.45 63.6374 1225.22 77.4418 1251.17 90.9132C1273.32 102.423 1297.59 118.855 1323.64 118.245C1335.74 117.967 1345.23 112.268 1354.07 104.422C1364.67 95.0028 1374.38 84.5106 1384.07 74.2221C1403.93 53.2748 1424.88 32.1055 1452.16 21.2248C1465.75 15.5435 1480.61 13.6262 1495.2 15.6734C1495.77 15.6734 1496.03 14.8592 1495.44 14.7667C1440.86 6.49512 1402.1 54.9032 1368.16 89.4884C1357.08 100.702 1345.12 114.433 1328.8 116.82C1313.13 119.114 1296.82 112.897 1282.85 106.365C1258 94.7622 1235.28 79.1258 1207.89 73.9075C1195.73 71.5759 1182.66 70.9837 1170.97 75.7579C1161.01 79.7549 1153.22 87.1198 1145.13 93.985C1133.19 104.163 1120.9 110.436 1104.8 108.992C1089.26 107.586 1073.74 103.866 1058.29 101.59C1027.85 97.0568 997.38 92.6711 967.239 86.3981C956.33 84.122 945.477 81.846 934.993 86.9718C923.734 92.5232 914.598 102.608 905.037 110.473C882.463 129.088 858.579 148.278 833.052 162.619C807.101 177.163 775.926 183.677 747.391 191.227C718.264 198.925 688.788 204.18 658.573 203.828C629.041 203.421 597.33 199.498 570.659 186.045C518.793 159.861 469.142 129.791 414.453 109.344C387.34 98.8734 359.427 90.6182 330.987 84.6587C305.479 79.6069 277.996 79.1073 255.219 93.3744C233.993 106.735 219.43 128.885 200.695 145.335C189.732 154.958 176.811 163.377 162.377 166.486C147.944 169.595 133.51 165.875 121.143 158.122C97.259 143.189 86.5721 117.93 77.2694 92.6526C70.0894 73.0933 50.5613 65.2658 31.6792 60.7877C20.1763 58.2177 8.52572 56.3637 -3.20563 55.2363C-3.79627 55.2363 -3.79627 56.0875 -3.20563 56.1615L-3.22409 56.18Z" fill="url(#paint20_radial_201_47)"/>
<path d="M-3.29794 53.867C19.9955 56.9387 50.2291 60.5101 66.8409 79.1813C76.0697 89.5439 75.7928 103.7 81.2563 115.82C86.2398 126.923 91.3341 137.397 99.5293 146.483C113.742 162.249 134.377 173.259 155.991 170.539C180.909 167.485 200.123 149.591 216.218 131.679C235.34 110.491 250.642 86.5277 280.82 80.9578C312.198 75.1658 344.628 87.3233 373.791 97.5008C431.637 117.689 485.367 146.538 539.761 174.425C551.869 180.624 563.959 187.211 576.547 192.43C589.771 197.602 603.526 201.289 617.56 203.421C646.107 208.315 675.215 209.001 703.96 205.457C733.603 201.756 762.729 194.243 791.227 185.527C804.056 181.935 816.463 176.972 828.235 170.724C839.363 164.095 849.926 156.557 859.816 148.185C871.481 138.803 883.035 129.329 894.387 119.558C905.184 110.306 915.318 100.129 926.282 91.0613C933.166 85.3619 940.752 81.4573 949.907 81.6054C958.121 81.7349 966.408 84.5291 974.364 86.3796C989.24 89.8215 1004.19 92.9488 1019.18 95.928C1034.17 98.9072 1049.62 101.831 1064.82 104.773C1078.89 107.493 1093.14 111.749 1107.44 112.73C1133.84 114.581 1145.41 92.9303 1164.66 79.6254C1190.63 61.713 1225.76 74.9807 1250.53 88.6187C1272.86 100.924 1296.41 118.707 1322.94 119.466C1335.1 119.799 1344.9 114.581 1353.76 106.642C1365.02 96.5571 1375.06 85.1213 1385.14 73.926C1404.92 52.1275 1425.85 29.996 1453.63 18.6527C1466.62 13.174 1480.79 11.1226 1494.79 12.6942C1495.38 12.6942 1495.38 11.8245 1494.79 11.769C1436.95 4.88523 1399.35 59.4183 1363.87 95.5949C1351.97 107.734 1339.88 119.484 1321.61 118.522C1306.38 117.726 1291.65 110.695 1278.49 103.533C1254.35 90.4321 1231.63 74.6662 1203.74 70.9468C1192.66 69.4479 1181.01 70.0585 1170.75 75.0363C1160.95 79.792 1153.49 87.86 1145.72 95.2618C1134.34 106.106 1122.26 113.156 1106 111.731C1089.74 110.306 1073.92 105.624 1058.14 102.59C1028.32 96.8347 998.469 91.2093 968.9 84.1961C957.087 81.3834 945.422 78.4041 934.089 84.5106C923.162 90.4136 914.376 100.721 905.184 108.9C883.035 128.496 860.351 149.055 835.599 165.191C810.497 181.53 779.654 188.803 750.879 195.76C720.498 203.162 689.618 207.696 658.314 206.697C628.081 205.753 596.5 201.145 568.943 188.192C515.969 163.155 465.58 133.03 411.223 110.843C383.37 99.4624 354.373 88.3041 324.878 82.031C298.631 76.4796 271.093 77.3124 249.202 94.4846C229.581 109.862 216.883 132.401 198.093 148.814C175.261 168.688 145.489 177.385 118.227 160.898C106.579 153.769 96.8809 143.849 90.0052 132.03C87.0889 127.053 84.9109 121.668 82.5114 116.45C78.9675 108.733 77.897 100.628 75.2945 92.6157C68.8712 72.8712 49.1585 64.1556 30.7009 59.1963C19.5386 56.3819 8.20668 54.2927 -3.22411 52.9417C-3.81475 52.9417 -3.79629 53.793 -3.22411 53.867H-3.29794Z" fill="url(#paint21_radial_201_47)"/>
<path d="M-3.48272 51.5539C19.0171 55.0328 46.925 59.2889 63.3891 76.6647C73.6885 87.5824 73.2639 101.22 77.14 114.803C80.2566 125.602 85.3653 135.72 92.2014 144.632C105.712 161.989 126.846 174.499 149.254 173.518C173.655 172.463 194.383 157.012 209.887 139.247C228.345 118.152 241.948 90.5247 270.022 80.8282C300.514 70.3176 334.033 83.4559 362.513 94.3551C421.577 116.931 476.581 147.519 533.153 175.405C559.141 188.229 584.428 199.757 613.038 205.29C642.552 210.976 672.714 212.502 702.649 209.824C733.073 206.988 763.09 200.782 792.15 191.319C805.431 187.34 818.148 181.668 829.988 174.443C840.594 167.309 850.606 159.326 859.926 150.572C871.739 139.988 883.497 129.31 894.996 118.467C905.517 108.622 915.41 97.8525 926.374 88.4707C933.24 82.5492 940.623 78.5151 949.963 78.8297C959.302 79.1443 968.512 82.6972 977.391 85.0102C992.36 88.9332 1007.38 92.6342 1022.45 96.2241C1037.51 99.814 1053.16 103.459 1068.59 107.086C1081.27 110.103 1094.19 114.488 1107.2 115.543C1133.56 117.8 1145 96.5016 1162.58 81.4389C1188.75 59.0483 1225.13 71.835 1251.43 87.2493C1273.86 100.425 1297.69 120.262 1324.97 120.909C1336.37 121.168 1345.62 116.154 1353.89 108.678C1365.33 98.3336 1375.34 86.4721 1385.43 74.7772C1404.7 52.5716 1424.8 30.0515 1451.88 17.5794C1465.13 11.3115 1479.78 8.62585 1494.39 9.78895C1494.98 9.78895 1494.98 8.91923 1494.39 8.86372C1435.88 3.75644 1399.74 59.844 1364.52 96.9272C1353.63 108.4 1342.06 120.447 1325.04 120.021C1309.11 119.614 1293.86 111.805 1280.41 103.941C1256.17 89.7845 1233.43 72.4826 1204.73 68.9482C1193.1 67.5234 1181.13 68.6522 1170.79 74.4996C1161.34 79.829 1154.31 88.3596 1146.96 96.1315C1135.89 107.752 1123.94 116.08 1107.2 114.636C1092.92 113.415 1078.57 108.511 1064.64 105.236C1033.72 97.9265 1002.75 90.8207 972.038 82.6417C960.299 79.5144 947.932 75.1288 936.23 80.6617C924.528 86.1946 915.834 97.4639 906.698 106.161C885.287 126.775 863.618 148.222 839.974 166.283C814.779 185.546 783.549 194.188 753.038 200.923C692.811 214.21 624.703 215.727 567.189 190.468C510.432 165.487 457.034 133.511 400.148 108.752C373.107 96.9828 344.96 84.3626 315.944 78.6077C290.75 73.6114 265.518 76.5722 245.805 94.2811C226.093 111.99 214.428 136.953 193.737 153.847C170.665 172.741 140.413 179.236 113.981 162.952C102.418 155.811 92.8834 145.806 86.295 133.899C82.8683 127.77 80.1143 121.286 78.0814 114.562C76.2356 107.752 75.7188 100.628 73.91 93.7999C68.5388 73.5744 49.6198 63.6559 31.0145 57.9565C19.8034 54.7058 8.37312 52.2692 -3.1874 50.6657C-3.75958 50.6657 -4.01799 51.4614 -3.42734 51.5539H-3.48272Z" fill="url(#paint22_radial_201_47)"/>
<path d="M-3.53831 49.2594C19.0722 53.2564 46.4264 58.4191 62.3737 76.5722C72.6362 88.2486 71.7502 102.682 74.7034 117.023C77.202 128.59 82.3593 139.413 89.7648 148.629C103.885 166.172 125.849 177.607 148.589 175.961C172.713 174.11 193.939 159.547 208.945 141.264C226.739 119.558 239.031 89.692 266.847 78.8668C297.782 66.8573 332.039 81.809 360.464 94.0405C419.14 119.318 474.218 151.775 531.953 179.014C559.455 191.967 586.883 202.977 616.858 208.621C646.544 214.153 676.816 215.838 706.931 213.636C737.22 211.434 767.841 206.123 796.487 195.909C823.066 186.434 842.982 170.002 862.787 150.387C873.862 139.457 884.85 128.465 895.752 117.412C906.255 106.735 916.148 95.0213 927.37 85.1213C934.753 78.5892 942.782 75.2028 952.749 76.4241C961.24 77.4789 969.49 80.6062 977.649 83.0118C993.67 87.7305 1009.73 92.2641 1025.82 96.7792C1041.92 101.294 1057.5 105.55 1073.33 109.973C1085.99 113.507 1099.17 118.67 1112.5 118.633C1137.93 118.633 1148.62 94.0221 1165.4 79.3294C1190.78 57.1238 1226.9 70.0771 1252.04 85.7505C1274.19 99.5734 1297.04 120.206 1324.26 122.223C1336.78 123.148 1346.56 117.8 1355.42 109.418C1366.38 99.0183 1376 87.2123 1385.65 75.6469C1404.61 52.8492 1424.21 29.4964 1451.27 16.099C1464.41 9.3604 1479.07 6.17147 1493.82 6.84673C1494.41 6.84673 1494.41 5.9585 1493.82 5.92149C1434.64 2.59066 1399.96 60.2141 1365 98.2226C1353.93 110.343 1342.11 122.593 1324.26 121.279C1308.56 120.114 1293.79 111.786 1280.74 103.515C1257.56 88.8407 1235.74 71.1503 1207.74 67.1903C1196.13 65.5619 1183.89 66.5056 1173.52 72.3531C1163.15 78.2006 1156.17 87.4159 1148.77 96.1316C1139.12 107.456 1128.32 117.615 1112.5 117.689C1097.73 117.689 1082.45 111.527 1068.33 107.604C1036.73 98.8147 1005.08 90.173 973.625 80.8467C961.997 77.3863 949.169 72.131 937.226 77.3308C925.284 82.5306 916.148 95.1323 907.196 104.366C886.32 125.887 865.574 148.315 842.927 167.967C818.729 188.932 789.049 199.036 758.151 205.512C696.484 218.466 627.951 217.596 568.739 194.243C509.527 170.89 455.225 137.563 398.117 110.251C370.892 97.2974 342.375 82.6417 312.714 76.2206C287.925 70.8727 263.063 74.3701 244.421 92.6527C224.431 112.342 213.874 139.58 191.485 157.215C168.413 175.368 138.124 181.364 111.84 166.468C100.071 159.742 90.3326 149.954 83.6553 138.137C80.1391 131.882 77.523 125.16 75.8847 118.171C74.205 110.769 74.1681 103.108 72.6177 95.6875C68.2063 74.6107 50.0994 63.3044 31.0143 56.8277C19.8104 53.1699 8.33767 50.398 -3.29836 48.5377C-3.87055 48.4266 -4.12895 49.3149 -3.53831 49.4259V49.2594Z" fill="url(#paint23_radial_201_47)"/>
<path d="M-3.61226 46.9462C18.9983 51.4799 46.2232 57.5124 61.4138 76.4056C71.9346 89.3588 70.1812 104.995 72.6176 120.521C74.4379 131.586 79.0153 142.012 85.9255 150.831C99.5656 168.392 121.346 179.495 143.679 178.681C168.228 177.774 191.134 164.025 206.564 145.372C224.228 124 234.066 93.1893 259.482 79.2183C290.325 62.2496 326.668 78.5707 355.462 92.1716C412.975 119.447 467.185 153.237 524.976 179.939C552.662 192.763 581.087 203.68 611.081 209.972C641.705 216.377 672.992 219.037 704.255 217.892C734.82 216.763 766.198 212.877 795.103 202.404C822.512 192.467 842.594 174.887 862.141 153.718C872.994 141.974 883.816 130.192 894.608 118.374C905.258 106.716 915.336 94.1145 926.761 83.2153C934.273 76.017 942.376 72.1125 952.989 73.6299C961.461 74.8142 969.601 78.182 977.741 80.8097C993.442 85.9787 1009.16 91.0304 1024.9 95.965C1040.64 100.9 1056.33 105.908 1071.97 110.991C1084.89 115.117 1098.56 121.168 1112.33 121.39C1138.6 121.853 1149.14 95.928 1165.12 79.8845C1190.28 54.6627 1227.12 67.0793 1253.02 84.2331C1275 98.7777 1297.52 120.854 1325 123.463C1337.04 124.61 1346.76 119.762 1355.33 111.583C1366.6 100.906 1376.28 88.4706 1385.95 76.4241C1404.59 52.9973 1423.69 28.8117 1450.55 14.5261C1463.64 7.32315 1478.38 3.66249 1493.32 3.90448C1493.91 3.90448 1493.91 2.99775 1493.32 2.97924C1433.44 1.38785 1400.31 60.5286 1365.55 99.4994C1354.59 111.805 1342.85 124.333 1324.95 122.612C1309.07 121.094 1294.33 112.008 1281.42 103.237C1258.59 87.6934 1237.13 68.9112 1208.68 65.1363C1196.19 63.4709 1183.23 65.1363 1172.62 72.3716C1163 78.9037 1156.3 88.7112 1149.23 97.7414C1140.09 109.399 1129.52 120.28 1113.66 120.539C1098.32 120.78 1082.4 113.452 1067.98 108.844C1036.6 98.8147 1005.08 88.8037 973.698 78.5706C961.719 74.6477 948.504 68.8927 936.248 74.9622C923.992 81.0317 915.465 93.9295 906.716 103.626C885.914 126.572 865.666 150.776 843.037 171.963C819.042 194.336 789.418 205.494 757.615 211.323C693.586 223.092 624.407 218.244 563.349 195.224C503.307 172.593 448.322 138.618 391.528 109.177C347.986 86.6017 281.742 45.9285 240.729 93.7999C221.903 115.82 212.138 144.077 187.922 161.601C164.093 178.903 132.992 183.566 107.023 168.17C95.0556 161.169 85.3979 150.805 79.2438 138.359C72.7652 124.869 73.7066 111.083 71.2886 96.7422C67.7263 75.2398 50.2285 62.6937 31.0511 55.3658C19.8575 51.334 8.34976 48.2393 -3.35385 46.1135C-3.94449 46.0025 -4.18444 46.8907 -3.61226 47.0018V46.9462Z" fill="url(#paint24_radial_201_47)"/>
<path d="M-3.66788 44.6515C20.1424 49.9623 49.5453 57.6047 63.0378 79.9953C71.7129 94.4659 68.4274 110.88 70.8638 126.738C72.5436 137.189 76.9644 147.005 83.6734 155.18C117.709 197.241 179.394 183.436 208.89 143.744C224.302 123 232.294 95.3356 253.852 79.6622C281.982 59.3071 318.195 73.6297 345.679 87.5637C402.897 116.56 456.258 152.441 514.4 179.495C572.541 206.548 635.666 222.055 700.194 222.055C730.39 222.055 761.768 219.816 790.636 210.083C819.504 200.349 840.471 181.993 859.907 159.269C871.259 146.02 882.481 132.641 893.777 119.318C904.685 106.457 915.04 92.5785 927.001 80.606C933.996 73.5557 942.007 69.4107 952.103 70.706C961.073 71.8533 969.73 75.7762 978.202 78.8295L1028.87 97.0196L1079.53 115.21C1092.88 120.002 1107.66 126.849 1122.15 123.463C1143.56 118.466 1152.7 94.1883 1166.23 79.4586C1188.84 54.8845 1223.45 62.8045 1248.46 79.1256C1272.08 94.4104 1293.4 118.466 1321.99 124.258C1349.92 129.921 1367.55 101.683 1382.33 82.4749C1401.62 57.4011 1420.3 30.662 1447.97 14.2299C1461.53 5.82507 1477.11 1.24763 1493.06 0.98056C1493.18 0.98056 1493.3 0.931813 1493.38 0.845056C1493.47 0.758299 1493.52 0.640637 1493.52 0.517944C1493.52 0.395251 1493.47 0.277589 1493.38 0.190832C1493.3 0.104075 1493.18 0.0553284 1493.06 0.0553284C1430.21 0.258879 1398.92 64.8215 1362.4 105.31C1357.39 110.861 1352.12 116.597 1345.58 120.298C1336.35 125.517 1325.89 124.888 1316.05 121.742C1301.58 117.097 1288.84 108.011 1276.85 98.9255C1255.21 82.549 1233.08 64.0073 1204.68 62.6565C1193.13 61.8677 1181.68 65.2917 1172.45 72.2974C1164.35 78.6815 1158.48 87.3786 1152.57 95.7057C1145.39 105.846 1137.55 117.134 1125.36 121.612C1108.57 127.682 1089.74 117.911 1074.09 112.36L972.757 75.9613C960.741 71.6497 947.673 65.9688 935.454 72.7045C922.848 79.6622 913.748 94.3919 904.63 105.143L871.056 144.761C860.646 157.03 850.457 169.65 838.681 180.679C815.148 202.681 785.154 213.173 753.776 217.688C686.683 227.329 616.249 218.169 552.902 194.65C492.14 172.074 437.635 136.897 381.394 105.587C355.72 91.2831 328.403 74.1293 298.926 69.5217C274.008 65.5617 252.616 74.5549 237.739 94.799C221.847 116.431 213.338 142.393 192.093 159.954C168.431 179.532 134.875 187.211 106.801 172.722C94.6695 166.591 84.6378 156.972 77.9885 145.095C70.0333 130.457 71.8052 115.247 70.0702 99.3141C67.6522 77.0161 51.6126 62.9525 31.9368 54.4959C20.486 49.8116 8.62081 46.2182 -3.50177 43.7633C-4.07395 43.6337 -4.3139 44.5219 -3.74171 44.6515H-3.66788Z" fill="url(#paint25_radial_201_47)"/>
</g>
<defs>
<radialGradient id="paint0_radial_201_47" cx="0" cy="0" r="1" gradientUnits="userSpaceOnUse" gradientTransform="translate(751.28 90.1359) rotate(90) scale(60.996 753.729)">
<stop stop-color="#00AEEF"/>
<stop offset="0.135417" stop-color="#9F77A6"/>
<stop offset="0.270833" stop-color="#EF9E00"/>
<stop offset="0.494792" stop-color="#44CC62"/>
<stop offset="0.666667" stop-color="#EAEF00"/>
<stop offset="0.828125" stop-color="#CFA100"/>
<stop offset="1" stop-color="#EF0000"/>
</radialGradient>
<radialGradient id="paint1_radial_201_47" cx="0" cy="0" r="1" gradientUnits="userSpaceOnUse" gradientTransform="translate(750.993 93.3774) rotate(90) scale(60.0318 753.461)">
<stop stop-color="#00AEEF"/>
<stop offset="0.135417" stop-color="#9F77A6"/>
<stop offset="0.270833" stop-color="#EF9E00"/>
<stop offset="0.494792" stop-color="#44CC62"/>
<stop offset="0.666667" stop-color="#EAEF00"/>
<stop offset="0.828125" stop-color="#CFA100"/>
<stop offset="1" stop-color="#EF0000"/>
</radialGradient>
<radialGradient id="paint2_radial_201_47" cx="0" cy="0" r="1" gradientUnits="userSpaceOnUse" gradientTransform="translate(750.92 96.7702) rotate(90) scale(59.1933 753.351)">
<stop stop-color="#00AEEF"/>
<stop offset="0.135417" stop-color="#9F77A6"/>
<stop offset="0.270833" stop-color="#EF9E00"/>
<stop offset="0.494792" stop-color="#44CC62"/>
<stop offset="0.666667" stop-color="#EAEF00"/>
<stop offset="0.828125" stop-color="#CFA100"/>
<stop offset="1" stop-color="#EF0000"/>
</radialGradient>
<radialGradient id="paint3_radial_201_47" cx="0" cy="0" r="1" gradientUnits="userSpaceOnUse" gradientTransform="translate(750.547 100.144) rotate(90) scale(58.3109 753.087)">
<stop stop-color="#00AEEF"/>
<stop offset="0.135417" stop-color="#9F77A6"/>
<stop offset="0.270833" stop-color="#EF9E00"/>
<stop offset="0.494792" stop-color="#44CC62"/>
<stop offset="0.666667" stop-color="#EAEF00"/>
<stop offset="0.828125" stop-color="#CFA100"/>
<stop offset="1" stop-color="#EF0000"/>
</radialGradient>
<radialGradient id="paint4_radial_201_47" cx="0" cy="0" r="1" gradientUnits="userSpaceOnUse" gradientTransform="translate(750.328 102.135) rotate(90) scale(58.996 753.086)">
<stop stop-color="#00AEEF"/>
<stop offset="0.135417" stop-color="#9F77A6"/>
<stop offset="0.270833" stop-color="#EF9E00"/>
<stop offset="0.494792" stop-color="#44CC62"/>
<stop offset="0.666667" stop-color="#EAEF00"/>
<stop offset="0.828125" stop-color="#CFA100"/>
<stop offset="1" stop-color="#EF0000"/>
</radialGradient>
<radialGradient id="paint5_radial_201_47" cx="0" cy="0" r="1" gradientUnits="userSpaceOnUse" gradientTransform="translate(750.159 102.81) rotate(90) scale(60.7592 752.912)">
<stop stop-color="#00AEEF"/>
<stop offset="0.135417" stop-color="#9F77A6"/>
<stop offset="0.270833" stop-color="#EF9E00"/>
<stop offset="0.494792" stop-color="#44CC62"/>
<stop offset="0.666667" stop-color="#EAEF00"/>
<stop offset="0.828125" stop-color="#CFA100"/>
<stop offset="1" stop-color="#EF0000"/>
</radialGradient>
<radialGradient id="paint6_radial_201_47" cx="0" cy="0" r="1" gradientUnits="userSpaceOnUse" gradientTransform="translate(749.562 103.405) rotate(90) scale(62.6831 752.412)">
<stop stop-color="#00AEEF"/>
<stop offset="0.135417" stop-color="#9F77A6"/>
<stop offset="0.270833" stop-color="#EF9E00"/>
<stop offset="0.494792" stop-color="#44CC62"/>
<stop offset="0.666667" stop-color="#EAEF00"/>
<stop offset="0.828125" stop-color="#CFA100"/>
<stop offset="1" stop-color="#EF0000"/>
</radialGradient>
<radialGradient id="paint7_radial_201_47" cx="0" cy="0" r="1" gradientUnits="userSpaceOnUse" gradientTransform="translate(749.434 104.198) rotate(90) scale(64.5804 752.292)">
<stop stop-color="#00AEEF"/>
<stop offset="0.135417" stop-color="#9F77A6"/>
<stop offset="0.270833" stop-color="#EF9E00"/>
<stop offset="0.494792" stop-color="#44CC62"/>
<stop offset="0.666667" stop-color="#EAEF00"/>
<stop offset="0.828125" stop-color="#CFA100"/>
<stop offset="1" stop-color="#EF0000"/>
</radialGradient>
<radialGradient id="paint8_radial_201_47" cx="0" cy="0" r="1" gradientUnits="userSpaceOnUse" gradientTransform="translate(749.143 104.759) rotate(90) scale(66.6208 752.122)">
<stop stop-color="#00AEEF"/>
<stop offset="0.135417" stop-color="#9F77A6"/>
<stop offset="0.270833" stop-color="#EF9E00"/>
<stop offset="0.494792" stop-color="#44CC62"/>
<stop offset="0.666667" stop-color="#EAEF00"/>
<stop offset="0.828125" stop-color="#CFA100"/>
<stop offset="1" stop-color="#EF0000"/>
</radialGradient>
<radialGradient id="paint9_radial_201_47" cx="0" cy="0" r="1" gradientUnits="userSpaceOnUse" gradientTransform="translate(748.932 105.413) rotate(90) scale(68.5748 752.009)">
<stop stop-color="#00AEEF"/>
<stop offset="0.135417" stop-color="#9F77A6"/>
<stop offset="0.270833" stop-color="#EF9E00"/>
<stop offset="0.494792" stop-color="#44CC62"/>
<stop offset="0.666667" stop-color="#EAEF00"/>
<stop offset="0.828125" stop-color="#CFA100"/>
<stop offset="1" stop-color="#EF0000"/>
</radialGradient>
<radialGradient id="paint10_radial_201_47" cx="0" cy="0" r="1" gradientUnits="userSpaceOnUse" gradientTransform="translate(748.716 105.797) rotate(90) scale(70.7299 751.675)">
<stop stop-color="#00AEEF"/>
<stop offset="0.135417" stop-color="#9F77A6"/>
<stop offset="0.270833" stop-color="#EF9E00"/>
<stop offset="0.494792" stop-color="#44CC62"/>
<stop offset="0.666667" stop-color="#EAEF00"/>
<stop offset="0.828125" stop-color="#CFA100"/>
<stop offset="1" stop-color="#EF0000"/>
</radialGradient>
<radialGradient id="paint11_radial_201_47" cx="0" cy="0" r="1" gradientUnits="userSpaceOnUse" gradientTransform="translate(748.371 106.349) rotate(90) scale(72.8825 751.54)">
<stop stop-color="#00AEEF"/>
<stop offset="0.135417" stop-color="#9F77A6"/>
<stop offset="0.270833" stop-color="#EF9E00"/>
<stop offset="0.494792" stop-color="#44CC62"/>
<stop offset="0.666667" stop-color="#EAEF00"/>
<stop offset="0.828125" stop-color="#CFA100"/>
<stop offset="1" stop-color="#EF0000"/>
</radialGradient>
<radialGradient id="paint12_radial_201_47" cx="0" cy="0" r="1" gradientUnits="userSpaceOnUse" gradientTransform="translate(748.165 106.708) rotate(90) scale(75.2085 751.341)">
<stop stop-color="#00AEEF"/>
<stop offset="0.135417" stop-color="#9F77A6"/>
<stop offset="0.270833" stop-color="#EF9E00"/>
<stop offset="0.494792" stop-color="#44CC62"/>
<stop offset="0.666667" stop-color="#EAEF00"/>
<stop offset="0.828125" stop-color="#CFA100"/>
<stop offset="1" stop-color="#EF0000"/>
</radialGradient>
<radialGradient id="paint13_radial_201_47" cx="0" cy="0" r="1" gradientUnits="userSpaceOnUse" gradientTransform="translate(747.926 107.189) rotate(90) scale(77.4979 751.095)">
<stop stop-color="#00AEEF"/>
<stop offset="0.135417" stop-color="#9F77A6"/>
<stop offset="0.270833" stop-color="#EF9E00"/>
<stop offset="0.494792" stop-color="#44CC62"/>
<stop offset="0.666667" stop-color="#EAEF00"/>
<stop offset="0.828125" stop-color="#CFA100"/>
<stop offset="1" stop-color="#EF0000"/>
</radialGradient>
<radialGradient id="paint14_radial_201_47" cx="0" cy="0" r="1" gradientUnits="userSpaceOnUse" gradientTransform="translate(747.566 107.427) rotate(90) scale(79.8666 750.883)">
<stop stop-color="#00AEEF"/>
<stop offset="0.135417" stop-color="#9F77A6"/>
<stop offset="0.270833" stop-color="#EF9E00"/>
<stop offset="0.494792" stop-color="#44CC62"/>
<stop offset="0.666667" stop-color="#EAEF00"/>
<stop offset="0.828125" stop-color="#CFA100"/>
<stop offset="1" stop-color="#EF0000"/>
</radialGradient>
<radialGradient id="paint15_radial_201_47" cx="0" cy="0" r="1" gradientUnits="userSpaceOnUse" gradientTransform="translate(747.381 107.81) rotate(90) scale(82.2816 750.772)">
<stop stop-color="#00AEEF"/>
<stop offset="0.135417" stop-color="#9F77A6"/>
<stop offset="0.270833" stop-color="#EF9E00"/>
<stop offset="0.494792" stop-color="#44CC62"/>
<stop offset="0.666667" stop-color="#EAEF00"/>
<stop offset="0.828125" stop-color="#CFA100"/>
<stop offset="1" stop-color="#EF0000"/>
</radialGradient>
<radialGradient id="paint16_radial_201_47" cx="0" cy="0" r="1" gradientUnits="userSpaceOnUse" gradientTransform="translate(747.122 108.159) rotate(90) scale(84.6982 750.439)">
<stop stop-color="#00AEEF"/>
<stop offset="0.135417" stop-color="#9F77A6"/>
<stop offset="0.270833" stop-color="#EF9E00"/>
<stop offset="0.494792" stop-color="#44CC62"/>
<stop offset="0.666667" stop-color="#EAEF00"/>
<stop offset="0.828125" stop-color="#CFA100"/>
<stop offset="1" stop-color="#EF0000"/>
</radialGradient>
<radialGradient id="paint17_radial_201_47" cx="0" cy="0" r="1" gradientUnits="userSpaceOnUse" gradientTransform="translate(746.827 108.42) rotate(90) scale(87.3186 750.31)">
<stop stop-color="#00AEEF"/>
<stop offset="0.135417" stop-color="#9F77A6"/>
<stop offset="0.270833" stop-color="#EF9E00"/>
<stop offset="0.494792" stop-color="#44CC62"/>
<stop offset="0.666667" stop-color="#EAEF00"/>
<stop offset="0.828125" stop-color="#CFA100"/>
<stop offset="1" stop-color="#EF0000"/>
</radialGradient>
<radialGradient id="paint18_radial_201_47" cx="0" cy="0" r="1" gradientUnits="userSpaceOnUse" gradientTransform="translate(746.553 108.859) rotate(90) scale(89.9134 750.109)">
<stop stop-color="#00AEEF"/>
<stop offset="0.135417" stop-color="#9F77A6"/>
<stop offset="0.270833" stop-color="#EF9E00"/>
<stop offset="0.494792" stop-color="#44CC62"/>
<stop offset="0.666667" stop-color="#EAEF00"/>
<stop offset="0.828125" stop-color="#CFA100"/>
<stop offset="1" stop-color="#EF0000"/>
</radialGradient>
<radialGradient id="paint19_radial_201_47" cx="0" cy="0" r="1" gradientUnits="userSpaceOnUse" gradientTransform="translate(746.313 108.903) rotate(90) scale(92.7136 749.924)">
<stop stop-color="#00AEEF"/>
<stop offset="0.135417" stop-color="#9F77A6"/>
<stop offset="0.270833" stop-color="#EF9E00"/>
<stop offset="0.494792" stop-color="#44CC62"/>
<stop offset="0.666667" stop-color="#EAEF00"/>
<stop offset="0.828125" stop-color="#CFA100"/>
<stop offset="1" stop-color="#EF0000"/>
</radialGradient>
<radialGradient id="paint20_radial_201_47" cx="0" cy="0" r="1" gradientUnits="userSpaceOnUse" gradientTransform="translate(746.063 109.263) rotate(90) scale(95.4308 749.712)">
<stop stop-color="#00AEEF"/>
<stop offset="0.135417" stop-color="#9F77A6"/>
<stop offset="0.270833" stop-color="#EF9E00"/>
<stop offset="0.494792" stop-color="#44CC62"/>
<stop offset="0.666667" stop-color="#EAEF00"/>
<stop offset="0.828125" stop-color="#CFA100"/>
<stop offset="1" stop-color="#EF0000"/>
</radialGradient>
<radialGradient id="paint21_radial_201_47" cx="0" cy="0" r="1" gradientUnits="userSpaceOnUse" gradientTransform="translate(745.788 109.43) rotate(90) scale(98.2551 749.448)">
<stop stop-color="#00AEEF"/>
<stop offset="0.135417" stop-color="#9F77A6"/>
<stop offset="0.270833" stop-color="#EF9E00"/>
<stop offset="0.494792" stop-color="#44CC62"/>
<stop offset="0.666667" stop-color="#EAEF00"/>
<stop offset="0.828125" stop-color="#CFA100"/>
<stop offset="1" stop-color="#EF0000"/>
</radialGradient>
<radialGradient id="paint22_radial_201_47" cx="0" cy="0" r="1" gradientUnits="userSpaceOnUse" gradientTransform="translate(745.534 109.822) rotate(90) scale(101.284 749.297)">
<stop stop-color="#00AEEF"/>
<stop offset="0.135417" stop-color="#9F77A6"/>
<stop offset="0.270833" stop-color="#EF9E00"/>
<stop offset="0.494792" stop-color="#44CC62"/>
<stop offset="0.666667" stop-color="#EAEF00"/>
<stop offset="0.828125" stop-color="#CFA100"/>
<stop offset="1" stop-color="#EF0000"/>
</radialGradient>
<radialGradient id="paint23_radial_201_47" cx="0" cy="0" r="1" gradientUnits="userSpaceOnUse" gradientTransform="translate(745.192 110.178) rotate(90) scale(104.395 749.066)">
<stop stop-color="#00AEEF"/>
<stop offset="0.135417" stop-color="#9F77A6"/>
<stop offset="0.270833" stop-color="#EF9E00"/>
<stop offset="0.494792" stop-color="#44CC62"/>
<stop offset="0.666667" stop-color="#EAEF00"/>
<stop offset="0.828125" stop-color="#CFA100"/>
<stop offset="1" stop-color="#EF0000"/>
</radialGradient>
<radialGradient id="paint24_radial_201_47" cx="0" cy="0" r="1" gradientUnits="userSpaceOnUse" gradientTransform="translate(744.91 110.549) rotate(90) scale(107.601 748.849)">
<stop stop-color="#00AEEF"/>
<stop offset="0.135417" stop-color="#9F77A6"/>
<stop offset="0.270833" stop-color="#EF9E00"/>
<stop offset="0.494792" stop-color="#44CC62"/>
<stop offset="0.666667" stop-color="#EAEF00"/>
<stop offset="0.828125" stop-color="#CFA100"/>
<stop offset="1" stop-color="#EF0000"/>
</radialGradient>
<radialGradient id="paint25_radial_201_47" cx="0" cy="0" r="1" gradientUnits="userSpaceOnUse" gradientTransform="translate(744.725 111.055) rotate(90) scale(111 748.794)">
<stop stop-color="#00AEEF"/>
<stop offset="0.135417" stop-color="#9F77A6"/>
<stop offset="0.270833" stop-color="#EF9E00"/>
<stop offset="0.494792" stop-color="#44CC62"/>
<stop offset="0.666667" stop-color="#EAEF00"/>
<stop offset="0.828125" stop-color="#CFA100"/>
<stop offset="1" stop-color="#EF0000"/>
</radialGradient>
<clipPath id="clip0_201_47">
<rect width="1509" height="222" fill="white" transform="translate(-4)"/>
</clipPath>
</defs>
</svg>
